<mxfile host="Electron" modified="2024-04-05T05:15:46.927Z" agent="Mozilla/5.0 (Windows NT 10.0; Win64; x64) AppleWebKit/537.36 (KHTML, like Gecko) draw.io/23.0.2 Chrome/120.0.6099.109 Electron/28.1.0 Safari/537.36" etag="RaIlCxLQPivoaMtia3FN" version="23.0.2" type="device">
  <diagram id="C5RBs43oDa-KdzZeNtuy" name="Page-1">
    <mxGraphModel dx="1509" dy="880" grid="1" gridSize="10" guides="1" tooltips="1" connect="1" arrows="1" fold="1" page="1" pageScale="1" pageWidth="1200" pageHeight="1600" math="0" shadow="0">
      <root>
        <mxCell id="WIyWlLk6GJQsqaUBKTNV-0" />
        <mxCell id="WIyWlLk6GJQsqaUBKTNV-1" parent="WIyWlLk6GJQsqaUBKTNV-0" />
        <mxCell id="lc6y13ehDyG2O-l-3n0m-37" value="" style="edgeStyle=orthogonalEdgeStyle;rounded=0;orthogonalLoop=1;jettySize=auto;html=1;entryX=0.5;entryY=0;entryDx=0;entryDy=0;endSize=15;startSize=15;endArrow=none;endFill=0;startArrow=diamondThin;startFill=0;strokeWidth=2;" edge="1" parent="WIyWlLk6GJQsqaUBKTNV-1" source="lc6y13ehDyG2O-l-3n0m-3" target="zkfFHV4jXpPFQw0GAbJ--17">
          <mxGeometry x="-0.0023" relative="1" as="geometry">
            <mxPoint x="510" y="100" as="targetPoint" />
            <mxPoint as="offset" />
          </mxGeometry>
        </mxCell>
        <mxCell id="lc6y13ehDyG2O-l-3n0m-69" style="edgeStyle=orthogonalEdgeStyle;rounded=0;orthogonalLoop=1;jettySize=auto;html=1;exitX=0.75;exitY=0;exitDx=0;exitDy=0;entryX=0.25;entryY=0;entryDx=0;entryDy=0;strokeWidth=2;endArrow=diamondThin;endFill=0;endSize=15;startSize=15;" edge="1" parent="WIyWlLk6GJQsqaUBKTNV-1" source="zkfFHV4jXpPFQw0GAbJ--0" target="lc6y13ehDyG2O-l-3n0m-23">
          <mxGeometry relative="1" as="geometry" />
        </mxCell>
        <mxCell id="zkfFHV4jXpPFQw0GAbJ--0" value="AppUser : IdentityUser" style="swimlane;fontStyle=2;align=center;verticalAlign=top;childLayout=stackLayout;horizontal=1;startSize=26;horizontalStack=0;resizeParent=1;resizeLast=0;collapsible=1;marginBottom=0;rounded=0;shadow=0;strokeWidth=1;" parent="WIyWlLk6GJQsqaUBKTNV-1" vertex="1">
          <mxGeometry x="360" y="760" width="250" height="212" as="geometry">
            <mxRectangle x="230" y="140" width="160" height="26" as="alternateBounds" />
          </mxGeometry>
        </mxCell>
        <mxCell id="zkfFHV4jXpPFQw0GAbJ--1" value="+ Dependants : List&lt;AppUser&gt;" style="text;align=left;verticalAlign=top;spacingLeft=4;spacingRight=4;overflow=hidden;rotatable=0;points=[[0,0.5],[1,0.5]];portConstraint=eastwest;" parent="zkfFHV4jXpPFQw0GAbJ--0" vertex="1">
          <mxGeometry y="26" width="250" height="26" as="geometry" />
        </mxCell>
        <mxCell id="lc6y13ehDyG2O-l-3n0m-50" value="+ FamilyId: int" style="text;align=left;verticalAlign=top;spacingLeft=4;spacingRight=4;overflow=hidden;rotatable=0;points=[[0,0.5],[1,0.5]];portConstraint=eastwest;" vertex="1" parent="zkfFHV4jXpPFQw0GAbJ--0">
          <mxGeometry y="52" width="250" height="26" as="geometry" />
        </mxCell>
        <mxCell id="lc6y13ehDyG2O-l-3n0m-71" value="+ Teams :Â  List&lt;Team&gt;" style="text;align=left;verticalAlign=top;spacingLeft=4;spacingRight=4;overflow=hidden;rotatable=0;points=[[0,0.5],[1,0.5]];portConstraint=eastwest;" vertex="1" parent="zkfFHV4jXpPFQw0GAbJ--0">
          <mxGeometry y="78" width="250" height="26" as="geometry" />
        </mxCell>
        <mxCell id="zkfFHV4jXpPFQw0GAbJ--4" value="" style="line;html=1;strokeWidth=1;align=left;verticalAlign=middle;spacingTop=-1;spacingLeft=3;spacingRight=3;rotatable=0;labelPosition=right;points=[];portConstraint=eastwest;" parent="zkfFHV4jXpPFQw0GAbJ--0" vertex="1">
          <mxGeometry y="104" width="250" height="8" as="geometry" />
        </mxCell>
        <mxCell id="lc6y13ehDyG2O-l-3n0m-3" value="&lt;div&gt;&lt;span data-metadata=&quot;&lt;!--(figmeta)eyJmaWxlS2V5IjoidWxmd3l0bFVVN2pUdnlWN3c0SjF0RSIsInBhc3RlSUQiOjQ1NTI2NTkzLCJkYXRhVHlwZSI6InNjZW5lIn0K(/figmeta)--&gt;&quot;&gt;&lt;/span&gt;&lt;span data-buffer=&quot;&lt;!--(figma)ZmlnLWtpd2k0AAAAZkcAALW9C5hkSVXgH3FvZj26+jHvFzMDDE8RcV4MDxHJyrxVld35mryZ1TOjTpJVeasr6azMMm9WTzfruoiIiIiIiIiIyB8R0UVEREREREREREREREREZFmWZVnWdVmWZf+/ExH3kdU97H7ffsvHdEScOHHixIkTJ06ciLz1x149iuP+mahzYT9S6pqTzWqjF3ZK7Y7if41mJeiVN0qN9SCkqLth0M6VPYMdNCrk/bC63ijVyBXCzr21gEzRZHphILQWDK6h3AtPVVu9dlBrlqTlYqPZqa7d2ws3mt1apddtrbdLFWm/5LK9SrMh5eWk3A7W2kG4AehIWA4aQQ9wa6N3dzdo3wtwJQ9sB62aAI9WqmtrpMfKtWrQ6PRW2/ReLoXC2/Ecbyeb3TbjCISzE2GnHZTqtobyZa5sR3x5tdEJ2qVyp7rJIGtVGLOioe6KdlBuNhpBmcHmmEk4vPLS1QmvVxl+6KVXbZTbQR1+SzVqXRswri6dH8ZMwD3klTTRpe1tJhIQHFZ6zYYhpEzhdLvaEaZ0YzKIWrv9OAINuqWOGSVI9eamyerTw/FgOD7TPhgJTqPZuC9oN6lQzYqpFwpWUx5DZQBIVZrlrnBIVpdLjc1SSM5bbze7LTL+WrtUF7zCarNZC0qNXrOF0DrVZgNgcZPhNNvkFkTGpIu1qiG7FNRq1VYo2WUG3kGuRqeOtIP1bq3U7rWatXvXDZEVumpUgooIKMU72gnuEZaOMTFlARwP762vNkU/T1QbdNYwUGa0Wj4loro83Ci1gt7pamej59pe4eRtGLyyLGthtdYsn6J01elqZd3o9dXQqstIr6kHlWqJzLUb1fWNGv9J9XUhBOxgr3fZHsJu10rS6Q2nS+FGtdehZ0oP2Sy1q6VVw/+NHZe5yWR6ZeRB6eYExa2qhzI8s1YeVgrDasiE9qDc7Erdwy/Wz6BmlInKW1JCwk2bSoCPqDcrXdPrIy3+OhWUHmVL7eZpCo8Od/v70enhbLcTnZ9ZZbg5vLtbagfUKvh086YRR71plorXoTOZGVY3RT8tVpqnRTSFS01hsVVql2o1zASro95rO4kuzINrwZpAF4PGeq9SQlgl0/mSlFluXSksS2GtaqgeMflmrRLIrK50WHjBfU0zzKOtdlAJ1lDASq/VbpaDUFT5GDMU1KT+eKLqvbDqeDyRgurdWqfaMsDL6qVGlwVbbbTMRFy+EdxTsrp6RXkj2Gyb7JUtmjnwVU2GbbOiT8LZNa1aV7q/ttRG7skwr7OlRBbXh916HV56J7sN5tkQuMGo60PCVhCUN3qr3VUmGcCNRhuwbFizZrtkrNRNq6NoPKizpoUdNKjX2WAm1sWyYvvbdWPPdaXUPhUIac8NUlTXl4XKOlzFXFIslJu1ZloqGvU3bRZCLI3JmaVNi0qTpUN5yTZJisuiiCgv2SNhc63TMzQorWyU2qi1Kxk7HrQDu36PBfeUkZMd+fENM9snwlKnm5qYy0wvZC6vdRFVM6x2pIsrWv3h2GnvUthEvwEqNKpSZVroTVgFolOQpEYe2DayAkJTxRYB81MYSE7pC9W6FXMR+3qySmZhk2Uk5nSxuseWG273R5GVPntmO+iUjeDXqjJOjb6a3jpWb/1gZyfadhwXqhimNjtmiQVEpaq0m62sqNeamElmkh1ktdYVBr3VUvnUPMiX9Vs2u8FCE42qohyAVbeFhSbVteZpk4GFjuUhRCNqvXKpJZpZyEosqHbZ7CBFIVqJtifT/mw4GdMm2SfomflFruQ1w62eCjJt82pRXzaeznS4RylpA+3eRuBmXjcO9raiaXc8nMXQbZdkqKpVvSeohWQ0XLOXCqZXnozj2TSb4UVmHriSejMkXS/J1unBhxO7H5bZ9ckU1qBY6dkWRVcw2AvhbDo5G5VGwzNjGqTEFBsKE0tGY3ld1rPI5f4+GpmMh+Ea1dCpvfTsgha5yCB8Wwzu7lZrbM8YOoAFp1NiwqxjUkR8KB8GNAUt5HedxWxf6d1GeSlXvp3ycq58B+UjufKdlFdy5SdSPpor30X5WLnaLud7P25He3IyFMnU8TfaQNVqsBnICHQycG91MhlF/XFzP0oUpNBt2JWKGGkmmyR5HXZXsc0m791jFrDRVyP8jcl0+OzJeNYf0dxZxtzcostGCt7JLtv7WtVwmLXejKazIUtPYM0WVbmmq81Op1kn59UnB3FUPpjGkynyYVsoYfuoUOV2M2SlVdvkdXBvIEsP1aPk4f2ZrlolhoItLKPilAtYepIiSblaI7dQF4sqTRaZYnxqckvp/Jni8iaLfTKtD6dTYSBdRWbWSbXJYIGwjOxoHVFhr9KPd6098crswoBUpuDa2By7HgqtxjogdbIVSKrDTUm8VkU8ZD84vz+Zzg6vIR9vCJPO5ucWikoA+EKmf50A0iXr1foXJgez9elwYIkU7LLKSTxj0LOrzM/atPqzWTQdUwVWtWVWCDba2Gpt5vNgNmlH8fDZkE5FZNgxkkn50GnOk2ad6cF426mfV6mG4gcJTYXLzW5KRoezC6MojNzYmbp22HT2scMRgESX0S6rK5xGcDUaZdlY/E5Qb7HBGj+/kJBBmLMoleRF+w1ZnewWGI7+9lk7jemYNjDQ9yFdw4Fmo8RtNXmLbfSa7i6SrhWpt4qSiYkh75sG5ckBDE1du4UHa4fY3eT4pW5Hdq5CjlTRkDp5EM+GOxcoPiiVVqmM77kZ2EOJb8urQee0dQyQEnRCO4vG4ALkVBJW7wt6nSZWxghoDoDSMcnVegv3npLUgGOl0ZrEQ5lc9hNAjnFVWkXsXXsQMminp2Kb2Ws4IJVagJVLbXVeRG76wE6oHR6DBmXMkqVbO8nLydRhCqzfJYdpyrrbNhO3yoZM6pdrTeOxFvDoe4lXTrnYbeHPBj1zrOi1u41O1RykFlhllap4N0YBFvPNejjwgrNUhd9pP8fOZZw7sAmmS1Vag6We0GO/oqzrTU72+KvkPZu3FT6tNsQvI1+wFXgYgla0JePOL4CF62y85UU37KUKPibpMnWngnuTZkcobjbtiWyFvB3chpngo2mZZUj5mO0i0abjtsgZclNan+hM+2M7z3aEN7ALc3bo9Ng22I9FQKApljfzbproNYIHpJ49zqy1m+nxwc+Bku2jkIPZjaKYg6Q7xUKrG25YmCO2mEESWksZyJJazgAppSNyDLcwR2klgySUjmYgSwkxJYCU0nHLKJMIUkLsxBwwoXfZHNSSvHwOllK9wvTkoI7olXlYQvOqPNCSvDoPSileg82rltFaMz/X4lASgSk1MIVmnV7H2aGJi5lBrg/6McvazvhxgiTl7mq1TIUS0klBVxv5oif2yrrptJB1l1YVBG8OUrRt52AL1tSn5cWw1bb7xNI66sm6SwHLDjUFHLE5s0BYqXZ1rMwDO6fFphw9BNzg3AT4WLg9nYxGleHUmheYdmvsm+wKSNhYbdsW2zQTaxANsGyziPrgnhYbpDW0ZSiIp2VKer3L1qS9mGASnZFfVHo0wV0yWa88GeGP6MJULSt9hn+8Lf7x+/xTsC4Ljc9T0hf4x2sDAjsDPMA//i7/FAylcDbZp8G25NUzld53phsE25UgbPanyvO3pSg4JiOwtxeUl2vg1/uz6fC80gt7t95KWe/dehuJt3fr7ST+3m0CLOzdJsDi3m0CXGj1p9j16ngQ0c47czAcqPtzXKwozx46qDzXHx1EtNEH5gByo/LWEGujvxcp7e/094ajC+DrWHZ8MsLZLN6eDvdnlHzBhedhnyYHe9F0uL02PHMwZS7Y491BW6GnKAAZTXzCBE/Jm27mm4b7/W1WwVxbAha4HWL1TFkTCXFn00sQWBNtkAHmKWB5CUGYPF4Z+m8UIt+63N+P0f6sCQvWHFI1SS8peK2AA6Ow7gPopSVx9Am4SrYIiMGuk13I0W8lcs+zxUGAfzkP4IORMfyERshMTopVZRGYtanDaA9Sw+3T0fDM7mwOififDClFqXKCGG7PoWR0OKKYnWUt6s/MRP2TbnEepUqVb28ZFDcar9wKBe7LqEjNQEmLLni6QLhIHOvFZrvSIF0qrbWlfrnSMFbwSKNbl6Gt4P5LAPEoG7WI5ljFpsflXEB6guOzpJeVSuYocnnZpldwFpP0ytCWr2pvmijM1WIRSK8JT5tg+bXl8LSk1zHJAr++XDaRyxtC6+M9ZIMIIumNzpu6qdluCH83i1BIH8rGKvJ7WKVjTtwPX6uVZBy31Nfb4lc8IkRnSR/J2Ub6f9Qarjjpozds+pgN2+9jO7b8LXfb9HEtm36rnNdIH19bW5XytzVbJn1Cu2PSb2/Z9re2TjVETrfVsFukt5MKn3e0OzUp30kq5SeWVtubpHeVVjel/CRS4fvJm5bOUzZhiPSpq7XTMj/fQSp4TyMVvO8sndqQcTy9fNKcQ7+rvGYW1DPKLVMulbttwVvFx5ByGasqaWXN0g8IJQo/a6S3k66T3kG6QbfSX5VU6J/csOOht3Xhp7bRPCl6gz9tHKNGFQ+GtHmy9aQnk7ZOtp4sdO4+2XrKraTtk61b7yQNayfr0q5DkFrwu2ynMi+b4lWRniYVPu6pn6oL/N5GzfiD9zW6pzqk383OI3x9D2lI+r2bCJz0/lbYEXiPVODPbJ9qS7nfbm1IutXursq8b4e446SDjuUj6jTMSWmHaZL5O7NJYI50d9PWDzftuJ+1ecroy9nNdqdNOiK9nXQvDLHgSo1JpTwhvYN0n/RO0u8jfSLplPQu0pj0SaQzUpHTAelTSM+FIbZfqQdIhd55UqF3gVToPZtU6P0rUqH3/aRC71+TCr0fIBV6/4ZU6D1Hh+HtQvAHdXnTcPhcyQjJH5KM0HyeZIToD0tGqD5fMkL2RyQjdF8gGSH8o5IRyi8kY1j9MckI5RdJRij/uGSE8oslI5R/QjJC+SWSEco/KRmh/FLJCOWfkoxQfhkZw/NPS0Yov1wyQvlnJCOUXyEZofyzkhHKr5SMUP45yQjlV0lGKP+8ZITyq8ncIZR/QTJC+TWSEcq/KBmh/FrJCOX/TzJC+XWSEcq/JBmh/HrJCOVfloxQfgOZO4Xyr0hGKL9RMkL5VyUjlH9NMkL530pGKL9JMkL51yUjlN8sGaH8G5IRym8h80Sh/JuSEcpvlYxQ/i3JCOW3SUYo/7ZkhPLbJSOUf0cyQvkdkhHKvysZofxOMncJ5d+TjFB+l2SE8u9LRii/WzJC+Q8kI5TfIxmh/IeSEcrvlYxQ/iPJCOX3kXmSUP5jyQjl90tGKP+JZITyByQjlP9UMkL5g5IRyn8mGaH8IckI5T+XjFD+MJknC+W/kIxQ/ohkhPJfSkYof1QyQvmvJCOUPyYZofzXkhHKH5eMUP4byQjlT5AxJupvJSOUPykZofx3khHKn5KMUP57yQjlT0tGKP+DZITyZyQjlP9RMkL5s/pwlAoXbcZ2re5UOnHVPHFm6/39fXGWtLczneyJezeb8K+3OppsKa23LsyiWPnahseU53M/uivlsXh2+HGD/qxvcBeVvzkcRBPleQlOfEd3OhKkVj+eReHkYLoNCS+e4t3hoIg7ON1uSCiHDgFxKC+L91oaPIuoidJLM2EcnzLe7Q8mD8RkvV3cFmIOu/iYeK2DaNYfjsgVIsYbiyOC93qOmEREbIz8wizaM8FUW7V4brjFwRg2ljl0ilxst+6WX3lH/t92uY13NkUY5Je3pkJzTM+UjhhmlHetmaTLlHXj1TOVNxFvdianA//cMB5uITitCiTuauq4KsacAmK1oxegPY53JtM99Sy1ODQz9kKtlkyus4urPhbWAS33xwA58VSlSiCXWQjuJd4vU7uoLqecv4W5Qh2xkN3JwWhQFv7q/TEA+LlmOuHoRGPYXImlCZmjO0a2BtNN6Uu0OrYvI10zVVhidTzamzxrWKaHFuFxZLyoT5wzivQira4glH1mOOZ4JT2fHg5mu3B25Rx0w3qyi+qqbekJZ1mOPlcboUhhV18rTnGdeaugrMorno0uqH2ld4DWhuOEADMtkMrwTASnPqcWStaV/n5VkILzmYvce1CC9tCO2fP754dxp38GJrRkGyJB9D5ZaSa6bju/cnu3L8eLaBqDodOS6ahakeF7seSb56IpQd6o02eu1bs87Y9M5NcEArfQAK6mRnAfs33o4pnRhf3dmH1DLwzS66WYXUMvbnE+Pft9BxNZyG/Q+jJLZhMGQIHjpR0Gk0rn5Vov7/RHoy1ifGtUxGpfH9lFKad0dnZ1ch4qr9Z6hRK5N/j66CwNF3N8nrrTYlEdc/BokMr3+GhyRq4WDEpnUk7G3tzZiaMZlkgt6xN7wySemLa7fI8S9G3vr9H6igHHtHPRoGaYeKOvr6xYQCbno3aYTlp6TlpeJi2W85y0WFhz0iruwEteOAsXy2LRjRQacxJYcvCcBJb/DyRw5PBoVwZ2cDXDP6M9upHjQXmFLWKxg1gNOHxbe+tO6v5ugscBokiIMiXMIsgaxRnThDCwK0neH7KARpDC4OzZtqdYOouquOrEqbwlbKA9lSLlB8wCZSFJ3b1kfMmkoy9IqRRvQ4rSIiZzMo1quatNLOTOcBrPUrlIXzCULy+sy+TR8fZkb6/PEFbt7pOFJbaUXUEMmjHIBBotoP+LifcH55xtXrjYDi0akDEyYTRTXy4Qt03VhY1sSvgGCWokmHQn+6bTH8zCOXeXtooZQooGXO9PmTYn+zyjNj5k9ExaSqERzR6YgO5GiLj2mI9nE6jin3ScF1sK2di5HUJKWlQhVvdrHV7Y25qMHPnYFOiX/d7mEyKxEPAI4sg2EsJ7tIaw2IqYzIQsemp8Bs9DN6CwDwxXk0AB0luPxrL5ISHX1yRPWR/E0RpasC5OCeO4MDahGo0jMdzZaY5HF9oI/Vx/ZLD9itX86t7ewUxGZ/YmS9ebp0vB2TOvFMfRrDqAS8aPrk2H4Lxda+0qAkAXINCXoig0dtjkqwMcVNe+He2ActbWJsRZWqYSRG9RJCuj7wtE0N9BW9bSjMFNDvarA3xb5ZsZIv9u1pCVNIX3aDwG2T4YEsX3arWQFEND/f2aKGqelJes6fnuQkf9waqTDh+kftN1iiL8bzCaiECEXR387zBDBlB5MCQciQO6GzxYfWc32vsm3KyN0LwORk3hUxL6xtNVQX3VROJ0iKXCy4GAU5CZ5CH2QT03gxlea4qLoLyFmRQ2Uwwc5GwoZi68GfuKk3XMVGosYwdQWRyOen98wIZ5IYxGLNqIda4Kw3h1Mh043+cSCMX4YEuin1tsWdK5G+BCxtu89n4M7Z2rC6gQHZ5JGSZljCZvx/QReA6xc7LCRAWgHxHKxdB5yzv43qesXsemEhHhf5+z49/o47sTkRX5t/rpWo85JrI5utNAcTTEp51eEIPQmYRuLKAJgKO8XsA470/G0ditr8WD8c5Irqvl1jFPcmkYd5MqI5lly3Y5aV/vc3RIrOJ2ArVU9f7B1mgY70JMOhZ2O5NO1N+rZexJJ97hTvwqxyKx+4lahzMZdmarhFRzJ3wATrE+DllMHH75HAvzVujSdDdv/z+izMbRH4W5GUmaWNL2gZPyjs1E/68STtAtc0IwzgPbgT9lKz2Q40QhOyoUSdKjwkK8P436AzAW493JA8iaQ85qhAQHYrtBX7I0Ntmx8KKXTSeucMQ2dqWV8y5z9ILLHOvI8cPswdXxjhwEDaubSg8O7I5Avx4KOptIRSU6N9xOXlwkdzYSWzOvQnSZaKeJ/3oGxjWORO8psylIw3Zy4mDbcY3L5dM9c57WhzrBR5ICx2J03m2djAWpVQdM5XBniDeA0tPK0vwca7iJ+HEiW86t6AgBtZRe3ytu7pJrPi35tMaTUnLZ53PXxDgSzIIrpshFB0jwF+zrSHKLjoFVPPEzbAPil7EU2I3hhl7SUcsNOTdn9gJbLhHdGyt9EQE7hrQlcdNqpZe8ALwYvYSO4iuJgnreVgo2VL6EKDNQWdREdLHR5yRsZGiwVLFR2iRsb244FPeYbfuEUYenzV2BJ2mP6xSD4LsLTfOGoBBwvJYIBpSZTrFaYCQPSkFQYXvd3H0QX25Btte6o7d5JwDPtgw5j2MZMPBH4oOdHa6+sBhDceYMayzKbZz+mTgiMwKSyo/PnRE7Yw5vzD/FasWsm6+yiig1D2biwIrhpx4Tx3TgKIrTQnkRjLUJEY7QvPXCbp2NAS/h8JS24snoYBY5tw8jt50f1T9rdcSxvLnuulReda3XCAJ3CVmqnS7dG5LRNXOskec/iSm4i02SM6fysOHpqvfHB3sh9oKJiBWuv7MRRCpiCw1lGeD1njnAKk5dadHwxTwu7YuxnI7Vk9VyjpJb6EcsNVdaiW2t0HCgoxlVBzm2zn6CGpmTMqxqS4I+k53eb2EZQXgAW8S0mTf2SworN+fl42DJLmwc5lCyHRGBXLpZlZYndyTc0LWbpwTiudfqfrC2Zt/OFbiHaLYlV3SPpRawg+w5hl5up7R9WTufOBBue0w2V0FgphmraA7cxwJxTWJmNLEelD2ZbFvlLp4xvCwXBA7AaL7MMEO4J6j0Tm8ErOiNaq3Sa671bDVXgr3kBwOMkNV+r6uRhl5pup1ywYkOIZbGZ5Ai0Sx2gFzRG47x0dvG0FP07aZT45xI24PpEA71YBjvj/oXzGJYEe/cFI3uw39rdEAAxvW2bwpIkmZ47kQ8aHDWDrRl6trRqM9ReNc2KOwboG2wF9nIG03cVJPFvargLFlfqVA/GM2G0ns0XRtGo8GmnQomaJsFhexRBp2/kffKEwYop5Z6X8JySi0l+uEeKInBJvGcVfatESZXSOxwMbXQC9KmN/eYYDHtIBgP9uW4iBgil5WNFDbwXfeTyd/imt1y8lJP+WljMtiKUUtaMZocul3RNAPF4orkQ3JSjx9drVRq5rEXttPoMtdhCci+D0qeXNmm9aFljm5igELlFV5+FabYqAEmDC1GLEFttXnaWiAWVMmJhq25bX8Qk7Wyy9BLNy9zXY6qktOl8djtq1g8AhKzCxb7erdYhbZdrJqbTvMyw0tfJPpc8/UScEEKaVWxXronrWLfvCerWrQk09qlMpe1QbvHTVu1K4tlOTUHR8RAIEb7nGDFlLjkXqej/JQfXSPXWyvVq+aV3jFTdDfBx03hdNL5CRZqkPFyWS3ooEk9eRPHCgZyOZPGTp0BrrCAVqniHlheaQHuvdpVtmS4cpvf1U1pbO6Tryk36y3U28CvNawko7nuYtErT89E+q9h9rNa1GLU34okeKT3LaYcO15LKCBDqkd9CXdLJEh0PBSDrgp2Jal0BWm3prxkJfmXpEAAx5h9LdcOQo68N5u4nJ9ATSev91RhNgn7e7bIbmwMWNMor9iWGUEClHiBnTEBrw3PYz3Y0izN0IQPzBaDr73kDgj1ybnIuaqT0eCUMVlEM7Dna6mt9nK4G0OiytMLVSL8NInNhYZQr5qR2HL50AEBDzQaiUQNoyaKdxYbOLbN6G8n62pEnbO4Ejk72zXhvMLp4eBMxFbC+sXYecSBTFu6DAZDIncygMJsiCmd9ff2q/HkyXdx7wppfI8piEKZQQlyNChJqNzfxpNPCgWpSJZwsRLITxWZN3V6o9oJVpultix1bR69ydLxKsFmT95yN80vBv0QLIEX2AjPWiJ+qdbakLtreXcmq4GcNj8wcT8sc4EAh91AewGqEOXHhCUvQc3PaZKSF2JnUKEQTWLXyhqtdtkjSbUsA5aaNUxz2E5CsSmod6D5Io7u/gARdMfD851EdAjD47zFYXZfWiM4PxVhoYHUiR2O2ay8l5rzscyApDby/8T93X4cqQXlmYwF3rWPn5A8oRopP1e0CE+aiQyOoOCkFvTksVWBoqQW9JRh3LJnXVFjVsCb9Dyf7/JGmZqa8b7RU8/JA53uql/z9M+63fn3jUtSkgiLxDXeptX/sj4P29eius1lLQfRMA4nOzO3LYdSBRtv1lx2TMZWlI613wC2NhyNEpyfp2x94gTyi0Ca5+zhVlLZoJK6r1oOOkgD/rkRN8XK3GB/P/HGyP+qRiaXcMWe57HQc1WZX/dcj9twmVYCmzhFmympn/APeWzv9ibP4kQbHrB6UahpZOye8UGE/t+wlZ6rTybj0ZB7pNGFpN9P4l/tErjEBjkpIM/7uSlw4JwwTMVrk4pUDgb8ywnYnQ3SijekFSYkkFX8SlIhx4MM/MYEnOOHk4plg/rf0bEBDgAKCgEu9UE7DQZmEZOaP8vVCMMC+1AOZpkS6J/noMKRwD6cO0e2+hi0WL1M6z/Ql+RwNUWFy/egNCEr2IZElVb/ANtJsWX3LCIRuJ9Nibyxefn6S4kGGAc3U4GPa/VsqBno/Lr6V+TSBvlA1ffnKzKd+QELTo1+TgM/odUrXIRtXn1fog+SaBTU8528jjtJtpDug1R/Ngl4ISYxEB9zW07NrvJTZlH/mO+QzNz/tRygLGu2+uOIsXw7I/2bhFiUOtQr8GyvVsvzjb6eURFJV6KdWD3X1y/EAc+BkW+svu7pH/PcqEUKb9Lq+7KitSUyP+zYTpgCx37pf83tFqYliYm1o5jjYzCWiZFjwAuTEBoRG9vQDPAn5lnDmHGtJA5GrJ7j6xcR5iEeWppGqwdbjtBvpIG1UKJz6pNaf1XPgQjYfUrrrxnbnrgMk6Rgh7CfNKjJ9q6K6g+8vWxLe7unvmEuk0OGgBNydZK3javsAv0z0/7+rmwE+ELL6ppDIIt4MoUmb1qX1bWHYRb11Iy1WBox+NzPvx6rHnYJsG3QSWs2WTlyS6Uepx5+EdAidwVeZldT16hbkryt2pRi7lrsOvWIeYhFO40/k9wEjtVjs5Kt/h6RUIP9jov5b0nytup7DTlRkldq9bikYOvud5rUcVD1Kq3+nZE8cYdhf0z4aG9vMq5JTArHU2Iv/2auFo/q/Oygz+E3w3gOqzBFqQxZupGMgxWWx/rBPJbdXEVeeZTn5lGwSvJkAfAP5cEhrghL8L5oOqHqefmqxoF9jWxfQk/VD1+i0umAmhF1v7iW6zLjBqlz6kfy1WV5qXxevSAPS/e9Z6sf1WzymLGE+Fj9ksVM7cQHwOgzHntte4N6jyeOEeUWx3zkaQhp9RcJuIZ8KP8lx+DzNaZeYlJ/z/ZpuGPNOb/s0/Mg48e801P/6Mksddmyayb6lfCxqP5USw0b5Gi4zSZ8qPZF/mxyhpDHoDludtZweJEjhkvrP9NJBXeOczUf0umduXqvr/5eiykRau/31UczxRJQjHnXzzOsrQ4Hw6zbnzGwjr38F9DTOGvjEm70B+1OrUMdonidFx2+XP4RP7ZXPO6hzgaagaxfkHv3s+CyVvufypXBWWPTFm3Ogr8jezK05LK24mm0TK8CltOCrfzOGPtEyGFFUgv6LoKj6Xuio2nBVj5jAHsYRPRkrJb1sVzRIpT2OA/A22WSWlBFstW4aQOp1F0xB7BIawIzZvRtnvq9nL/QtGNhWFdeBLRN17E5HAzTyNZV+bJF2YiNN+Oe8iyrG/Jli9KwIGMG1cPUTbmiRbjbQlhF6hZ1c1qwlW1bNr/1faR6aFay1eEOLk7m+Tw6K9r6+2wDCxKMx+QBFue7I+NjxerTWn+ry9uaXiaYsgvl3n4IZBF3pN/1aLIXyT3iN7S+Iw+wOGdszwlQsO6cB1m8XXkHwTpHLSf7tWgHs5pJHRH/pM4jtEXQhzBemmGsTmazyd4lqPzUYZxLEXpZhpTVDGVL3UfZWcro3E8fxulM8CWozVBeboIgON2s3phNglEjfrPSfkaODqWtQwH953pbE/FqGN+G8VCA/YKDWW5T8GscWIaYAn/RAc2YUuhrHZTJ5byAosuSeb0D0pVVWob9yw5mu0rBb3Bg6SoF/ooDmq5S6BsdNDTza8HY37xQftXbZYuzLkQqk5m6Wd14KbhVjVYsvxUVI6NWFXuAK9jKZ5myjIsdAh7O5ssWZWRArf5A9hpQ9vJli0KHgMrMBKbHLFK1ps4b4MkD+9vbDXXBlG1tRX1Ym+JGyrYjSAd/Yasw5sb7ySo+YisIxeAPnlR/aYvWhaH8UVtusR3iJ4TDZ0urk+qf5sCm/yrBoxiWPmer8ozbqor6d65qdzgauKbr04n8NuzztsaxZaYQ6L+fg1olAPwFCzZkDP0wGu0gnC9aeLLh00TV1I9zWAPYxp2dxtF9MvXnmfSfsGDzY+CG+kNbcjy7maKn93p7wzGDjtR7C+qPZJNPCu+ba2G4QEc42sxUS/01F/PhGN1e7++xlvpTWWAf91Agd40sx23j5f+YLEh7oxvK3UZa8aKsYpV+zmR2DtP34zojZXyJz2j1szlYh1ZcT78yB6pkN9U/p4lWMj6DdQ+eZYbVwluIpuei0FzjwPRvcQohJGl8F4PfJpqSgeQ3zSvqtzNeCQrKtfTntXq7ZrEkt7odqlRH/W6uK4lNTQ5klt+Zx6z3KfCfsUm/pykkNbkRvEuCRNwDmTK7LFM76std5btzHYTmOW+Iks1K5gmwGJk/z1itZqRj9VZffyarMlOBhExkUr3LV/9d26sd44q/yNMfdGUJfeIN2fufF3v6bxPZSHABGuplnvpKBgs48AP5LxmkxkhNXEC9yuO+NIWb1my97MP/NYPS3sL+JYOV0Tomy7Aaq5d7+n9mdeKSpRckr/TU/8pVMUz1ak/9V6+fRrFjnDf9n7091AO3URzEGFOrn+MTCzj06aej6j9rA+2iL85YLKv/xryYY8sl3rW9VbPPPmj1JosTDtRLPPURb8wiOPTa7i1afRnmBxHXpdtna2xyB/iX6lW++iFvhE+L4p4bRg8Y3A/5iMEw51xVPGDN8J0LXkZgMrR0N/o5rpcH0aSFCm2x1PD5iSXGEjY15D7oq3+btKWbmJiiLLmvFNRXvAdMAFse+3HoR4iR+oCnfjIHLtsviSxyP2aBFSuB8GBrNo2SD42831M/5erL/W1OTSUIxsySerOHwtia6nj/YJberL7EVz/vKmSb5x6RhfhqB9mYnMOKGbV6H6FGrNFpAw+x/WdF7oz6lxCRLBDE4Njgwt+imeagfN6Rq0ez/kBE8VJfPd/BgnMiQ/ViX/+Ig7TwLNhdLtSj8YE1+K/09Y+6SsO8aE+DOTQa9Apf/aRvlKA9eSAx2TExRvVWz4Axdgd747ma37I1NLAqh6Po4UwboEU/LduYAf82wUq3wLFncv5g4neG5iWEzNJ/uai+xZLjtLXPmTFB+mePgJV7mfchzfhjQQz3I2z7tDERzVpRP+ybB2qY7Q9q9T88g9IRiKHyYa3+Zw5G2Is9VT3fUupEe/tExCQG6a5KftQfDCUKsgc3SLg6YC/4D9xyyAGwPZnMKH7BFRPR0OqL3GObVjVTI28MDM//4qkvJVWOoNn/vuqp/5TAbZNW/yDG5n7NU19GXVosrspQloXowdetqDjkB+ODvTWMB8qpXu2r/2HtMxUy1KTiNb76QQJobIzo/RGTsR7N0/vmuy1j1jxUj2clW70qq89udEEaHTtxEdAilyMTPGZOzWJu2rcql18MtehBjEGtYvum5ukvtuq6eYhFq+0NGU9tSALK9SSuZKvrMzS4g86cZXMA4SH5skVpbrEa57509Gj1yMMwi3oPqwyFyzuXOJ2Puhhq0e8l5DDgKsB8Goj+1BPU4w+BLOIzrRBCQh3AYjYL/W3zIIuH3hETM5MQi1fzVPWEeYhF2xoZBZFAd6y+pvW358oWY9s+6hYdICavbs2Ktn6wg5qh+fFZgk5mDpmq+CKgRcYsmr4na8yBVmxEadEinLNjWUXqVi+S9mA/IMFMFuXXtX6hRnJGN0ULqHuxjo1Xk31R4T71C+wpclIK91hau4iGSX2NwyOEEhO/2FKv17bHjggnDjfXJQPBX3eITBTztE2INzRbwPewW21nMLiHyG9yHcrFrfFZp9E4WVwr7IuWSmrZn++pd+i+e/LyAk/9YbJr2uCwgGtmBjbdnllU79Vj2hKfo2jW/Ve0+iMT+h0deuf3Ba3el1SI8yLGL0GAyz9O6jLpVkWKjEQQvqjV+y/GKGWv6b6s1Z8YBJTDGLT71V8ZWfTxc6bcN4kc3SWanMdKY3xamQDZoT9p3fcyNOkSucl8nFR/lxGQGyuh8CAEPqXPRhcI3J05g2Tf4xNFODfBGw1kq2rtTonsIu9/1MKpbK4EdXZXo53JFK+VuKAM8H79H9zNRg2nIlYv9PR/1DOmW+J8Inn1Ol/9JyYERneb3HuwTmEUP2aCXSToSR5GfhifJJ5lx4gXEBPbigaGwAd8HEVCmLv1CANsQK8t4PegFMyzzDLsOU1iB/ppLx6yR3DaS+4PWv1xNJLhvsrrbzMSEzfb6NRrsjzeV1Bv8iSQ18biqPcX1K/nkGruJcSbvXOCAsR0//aCeksKKWN1DvYYmbji+1yAqd9M6+SEu3ohxCGg5qMeEcykRmBUEuss6LfnoWyK79fqd1JQOyLAgC4bZXx9gdhoUiOsmFuuWL2zoH43hXeY5XEDUwHjn0qh4fZkH8x3F/Q/sNWwJV9ARc5zxlKf88w7h9BcILHo1fO4m3ZPI9/qqR/3t9AxpmUzoQSTA2Hyv3uHagD/S4EdkXsl1qe1GcF5NpaB1DIBP+hPMRsJ+inUfYXbI7HJk52dkBk8iEVSnymof+/BAu2SpSbgz3rqjx04cbAE/AUPd3BvyM4siJaK+kBB/Ql85C6q6f4DHhrEho4z+hZP/Sly4HSIF7aDM6E+XFB/xZW/6CnaZFSa8bxHq49522KD2jbMnRnDjxbUJ1BCA7VOwor6W28w2SbiTmA9T/sjBfV30OZ+iEnIP/+IUT79GevtlCB7zvo8XONZ4XzWqGZpNpsOt4gy4dMV1D+ZUZj5NEP5bEH9R9ztPbyw9GMeP4Ajk4Dcxzueo9V/QyLoE3dkMT0xj4orCH8Q7fQPRrO5CkZ+P67qNA/j/2Yv5DIcZ7p9ySrPmw1nDHhFseQx0+lNp7fJCLMTg+f32TT3KcKC3mNA/dpEvnCjPA46ZrL8ukBFKBBQy/KuV/G/VqkbymsP3WmuyxMRgfcSoFe33y3zuw2XKzg0KfZSaNF8WHut2T5tn7QsmPJqqXzKARYNwDwQXMJDxh83Lr49IXgLTCoBoSEOE3FGrWNjWTNA/pe6+JBrKTZyYmQFYGGuiYUWh3HTNrPlBdtvxW1lc8cfj8nFQnGUl+cZmHuzAZD1ci8kZW1kvxv5oKf1fGVAzQVInTWalr3XTJZnxa2vjMaHoXGoNqAKIv4Yk2KfQ8DPuRyOGMvUCFmMj3jK35yDqEfUq6G8+UHe6vADPS3fMV5vy3e/s3dyXgasNir2xZufPPVL3tsV7Gu5rFXRAtzruuQlvnxSOwe1z9gW54HJE7aleXD61m15sxpWV2uiXPYZYaXUkWdPK8m7w6PpK8Bj6bebpSvDRO/wmI/P45jeL0I6kSFZPi5N67KL0C5N7vLVZrsCQDpMRXiFA7qWKfxKBzc9ptCrHNR2kIKvNp/da3R68u2loN2pBtLfNVaU5WZXntfmZunaejV76HmdvOZMCtdLTSrIG6QqLT3EvHdMn2XeaIrJ88ebTMmw0ak2G9L9zdm7yYeaWveE82G1w480b5F3a1lHj0x0VzbwdHfPVsnHcqskjxJQz1JJFwNQli/7aLpeBBvQ/cork7M7NA1ztD8B7bm6gAohyqqe4ZjtqfcUhJ5byh2hyuGfzYijfn4vzUh+CpIPiheAJOSHA7jKXjFfRFrcONBzZD9zEVmHE4CQkYwBYia9ktnWW64D0HKkPgepi+oDKjMy+65COLOo1Vm0Z1wY5bl3g2q1Zr9J74jlfYissy+mneXqAyqzzgRIlCDpKcFjXxj3jddl39V+HgxOzNjwBjNm5tWfEcPlDM2u/WVPFc4RDzGFr3iquHcQs1dL6Z89tWBJd1J0T88kX4vGZ7h1wMZahM2EgofnPsMXZSPIauspSTaMCV5KRZiLYWrWgVo9BtWr5IMaaRxEpGZfVXbs1/W0w8sHRXTyi405+TtES9BFSYQcRNS9ZuWjwrmHOu1oR3nFMTKymwHs45LAK+vg2ZO9rWG01rdfIWhY8frb+eaNtOE3EGn+5wLF8qXxVCEz1ipvrLX8LKldrbCf9ELzVxB6sAHz1cZG0K5iXaq1mrUptsKf6yF7caS8QjIEtxif55tdcNMU2BL9UXSmv33B7e6dKHu0UpijWRHhLFshj+3wiS0h6/7I0oLw4ceKhX0zR655VdoWZzKpz/fVQl5Ai/tTeQjHGcrQitULfLWU53J5jhcL9nwJztg8tmsG67bwSm1/wWNLKPtc444wID96M1/oMmIn0clPzhAx20GjHPTkd2AA5lu3DjGKPrNc5eRhiitaD91hT35P6aAv9LVXzYHniUBjJjy9yFdyCkZu3wS5I5jKk4fFLAvjbSj4xaeUT8ULv9q6a4EcnXE07DdY3cdclfk9HqmWYfeCCqpkf5rhlTpsghtBBa0CRT5NG/bsH0eRajyaLluk9NTNw907cBMjTsMgynef5WXJdhvlUicga59OywZGwbPNMoM194Mdm98kMoAaGZALRTes3vmnTUmmg4BbGrW2olkslWVjpRMVBuKbdcy0ZvNbYet34vANsBcGNRwTU+u8dHJFWBVJOe833xl3lpy8JlOJIqDnHl62ycD6DI3EsyXrhmgk00E1ZdVbDj2ciPVA3J4GbqL7HLtqV8vpnzFxU5jvUwbI+tt3ICeJfH9DMEwHL2MhDrcNPwXLGZdLvi7Ghu1o0DQwalmCHfvmiPWzuIueAVzCxLFRck092WO7ZDq1rD68h7nrG3VZ595WEJbbVfMBPVVuyYRr9105rxyKefVPljZLKU5BIh2kxZOhmZ8F4zXfLaDF1r2dDQNcWhfzvBwa8JHwdNU4xiunmvJmn9zRdjcUyLHVkvlC4nGOXfK9ZiO3E1U5fRA3DHLBboypfYyfVFbQuKSS3YzEWOMS0Tj5jvSDPt9lovcdEDlZcyor3pPprRE1EsIY3BFZtBZqWwcEH+yt2+sxu0P2KrwlkX7yRFN+UhE1DggxTSkVVrMGqmA8WKsc3UZW0Okxg62sV7MfMvQtD2N70vGOjMgaMr+GUYnlsIj1Laojl2CBDVniLWk4gTM6A3yTr5YH86A3o1fzIJEoRuYtvioMJg+M2WxxCNPOiuhgjCyi8faFDLog4kHM01nTRmmLalEe509jw39zp0Y9OrdUyXYkqbAD0/MMCE9aas1YVdEoA+JQTlyJeHQqwATiGR/s7m7TGCd/IyhRTa4QXkoaKvmYuqqZ7x3qtvlsKB7GPJpnq5WtxlPJVztpYd3r9hvooKjgnjSf/UJcMJPArVccyr6pmS0avw01shXE2nw9/6PEmInFsZXvX+2B7AwoAi6mlANDxVscZj10AHPBz76VguZu8lHbtCJ3ke+zVXWygC0u5EXx2iJxdDRAGoiXhxNGu4U9iaZscCUAiPJiytumO3x0jKvKamPg72VjH2N87AodDfvc93OML0/GRJ6g2x+VDGOyEfddDrkQiHAI4jxkv+8vGRTl3ZRx1oA6qxUJZ7AOqGoTpzmF5AfOHTsbvsG5RxUyHBmQHWNu4KG5qT30lEF+py13+dQbMm35lXMCsQ8zliTKM7pkpH/54huDI1mHuAvc6xMM254S+qSzFcvvGvfpUq+W9VGW1LRvEdwi3FLHZkbsySQYkRyfh22KxVNvKKgTZg6dMN/rqcsg57pv0/vMhtgSjrnbw2qOu9NRddyIHuAsBuiKedLq7b66ch5kFjyzd5XpLDw73O9MRMTI9+oUtHqhtGeOGsvqGkRo5zymmb42LWY68g5fX3eIVSuFHK/XH0KoJtp/LkodQQnh3zDPbQimOUM/ZB6enqRvnIeDf8r4ejelyhmCIcHLlnnzQSTL7fGH4pf7Ca84Qm4BViLzdEcVTwX3Jj+OY8841cDNydwMsUz6ntXmPT08R/JeK7yTxGeT7eB7EBKhVIArR5UldTa6IFt/rIqa5WGgrq93Y4g2YNo+S/a8A/OzQPPzBAbr1ZESPFpjSlf5v8bSbN3bq3TF7CWeoUUWsySN9Z4tR4MumlwdQNdLQasXUqC/Q0T7lBFiIbYdvc/n+JqgWsQqsjwhVsdBEwIWvhiw9drbHe+YG0M83e6aXBpC9mfJ+2dbUXhA3iqgc8VdG+XGrEVCqINEqF9M8avylto9ml7aYd2ilXmYOHTnWC1ynXiEi+AzQ9RVtjzKKwg+N/FHTQ+b1qgbARxDY9xLF88/MKMCKudvtCh0cVkBcUYBMRs7IL/GvGEr0qc33tKBGZtOBi3OTsIaofk8K4VLjq94ifEtzGOednI7LKBEikubsCPXhLhR2/3xuX4sN3GRe9PKbrTPTezIsc0i9Ey5EsmCNUFu22jdamGhLn8RiB102warH6+0rTdEa5PtvhnPlvJy4JD9lNVuP0k3OEzRUtow74/aGFaaL3K851rjLEEIcIgZ7Jv1C9XwkG0xr6Og4q6NU9PrdZh4lhau+TkWlFxFmB8WkXP96t3JjFuOmSt6MedCl09sQNrYzmZxYksO65sRYJ6tAaompm4ydnUF12wVw7/PMXdWHcgPj4ppn2Fm0Uqmoe3d/JQYH3sNfxNd7Ez29yZ4fdtcHIhGwg+2LmcNgaFw8zBDCdWbunvHBC4WFbebo9olmJDK/xtGIGUtyiFmhC74sDMPBx8wZr+wyVKZhOKBlblGPGPZ94oWvWGb090wbjErsCLamxZCUXAgPvolERPZ54iJ6ULfjEXeWhv3IpZ1jI7h0LE3MV2DUHrE/m7hcrlhVaQfN/0Eaok9dNItLfVIscnZrZNqB8SbzMWVRkTmZCCcbRHqsqPBNk9wY0xnn8HnHkcPpAXvIiWpiJL45BJ1AoIyDeMNi1kdN6IHDg0BrRqkzH1W4kNJDGQmgpYbf6G6WM3AiagRcywl04s+3G3CXjhHB+7ihE4OXDC/k1ZfYh8RK1w2yx3rGs9bBWdH3Coxv62RKXZlcxgLkxaILk7ytGZeB/in37S9lMOkTdsMcQujC1SwmtPyZCzuOYpT3XFtUDSGUY5GI8LcVYEspBCO8QayOD+nLTNU5cs367mNMIdLVeLixGaJmNTrVW4gpODNN2WNmDdASGbfUEFg8gb3DHMqv3lg50yUFaMcyuQQvJYfjbIkY8NYInHzu/dE6Sx19TmU6mJwCBku1L/MMTRPvoDaY01T+v7WvB4mS6HK0Ve+IOrFBj+1vn4yNPuLcabr4q6Fo0swGqYcOaKOiVj9M2ezOSbNpkDYPNt0uGZNqK2JLC1J1sECjVJ5xeorvl6kjmCZ/SoN0UIUAVOEwNkH2eI6tuxtyhEsi6nJIUjOFNGgTEwHDaBJCcGMOAokii1bFuDZlK3YPdKDA28jwhXdivozZh4zEUhs0YQJ1So3ZWlJd3En4E349m6JYZChIfVFFkjSt5BznizhcoknPRNLILu+PegUZSs3W/6HWfR7DCdSH/FVtmbU/XppskVH5xAHNnF5EOFmRA1L8wgmAytiduBYfdTXK3Ymkl2XWzBfvgfstoqm1YVYfdzXx+hqCrcr6riZ2gRnw9oLFsyJOXjrEvskze+X449DSchXZAKwvJfvU8p0K1b/4usrtnOT+VWOPefmpu1rvroK63B6SjwP2V0tX/pe4/ARohTomlbX5CxXYgFj9XlfXztDD9zEfsFX10kxTKX4RV9dn05KyewwIRN1w85k+yBujjsgu7acYXbT+f+Gz8klGV6YbXwlQ7UiHH/S1zedG15i9/u0r2/eHg2ZHsS0oh5quoKKvDGpDhDcwy5FWbbaHPVP+frh/Xmt/bqvbknnAMkIvWAUiYtve8fI0JGdW90fT8YXRK+6Ccj4YeSwtNgrjnSx5RefIkSZiP/193fvPoimF3Ih7bkTTKNDnIk7Wa7fzV8A1K1ad91EnnD65ihgj2J8APHIG/RKn5zn9jF9GKKthPrzCsqXWst9nOqCp7dGqL4Jfjh7xdKyUsD7ZPRMrGc/INe13rvMq7uoW8K9sJdeGMEZ8Ha0Z3cNe9+GMnPWAG6K/oycyGdRFehoVZygIv6t3NUtErVjJbRZash7EALtgM3A9vZN48UYUFc+bckxp55d9mHjMhZoIDoPEp1LA3IYhW9OGachnE32ObxAInV7po3JHiclO35vzvAM47IsDuKo0oLQj2thGZrHHWdUXkKYqGx0dXU66Q+2YYpr1Dns7Xm5v5AWM3idqhcxfftJP+qlBax9YipaebC9WVUvLqiFOoSRhfIeIVjojc535WExTMa8ZnFaId8jMGqdlJ9T0MWh0BaGLrkMnltQDzMapF6g9YLkVvsx5stuhDfLJWF/5Azpon1sqApqKZZgbYjXamuWk3JHWH26OpKUy7ghdGbAz1Ar5vEebBfVUZN1GktoyRTX0tP6cdtxq39hhKgBnIjnFo3cfj+/oC/LDT5dEi8oqMt3oLRpz8EM4wpDvYqiscrY6C40D2axiGK8PWITIPIluyu6cKVBbCF2Y3yuQlOI1mFiR2zKo+54IAZs+6x6eUFfY0DtKAe6divRi1i9rKCvm0bb1pqG0fcdRGici+IvqutNP6tT1HAXx564xBoM26HfYOoCAlNcQIjc3uqph+zLkeTCeLvEPGKMQLsx/Q4GV7mRObXJB7NvwkOeXZAXq1V781qDJUbw0O3RcH9LfqyW2vt2dIZ/cUQK+uFwhySdBYnt9L+ioG7Bc2tH+1h5hFS2cwmxRwSXQLcHKTcZh+zR4Zr0aYAnGmdhKXZOoy0sVq8s6IJ8FrckvxPIdc2B+QwDZ6qSb8JBsjLc2SnvHkjMaSUjhaXQ2nqiC8ob2A8DNqhm0eB2GGe7KpQKNu80u2hLVQbJMkIlGf7CtlCPS+YnzAims4ueCIguFrcIpYqiIamNIQtvur17gS700v7FsOVLIa8zIJnJI/uXhq/I+JKF4S2MGUIyQkja7UAWM2N0cojVqwral+Kq9CdohS3JtUwPjXkKxf1LQRfayaNmo5PKc3++sdIjMRucSv4Ouk5RK7IcPSJz5DdstEdPk0pD5zUFfNK+3dUF2wDVUbl5D0qyWaq1WrMkW6oOO/KHFMl5pVq1ZO4Ozd0sGfk2ZjsI3V+ML9bNzfJC/lXEon01Ja8hKC3JZWDykGK52tiEomAdaTQrQW+tGtQq8tk608lKwl47skGGjM2lb85myp3lp5jnZ2GOn8U8P0tJh6WxvVlEjR/kFcOK8nZQA1fiGNU31x/ciBSMH23hz1TF6Pz+FMvNcregX2N/2XNvD9SbC2zO7g2xhbyHu7UdVnsoVtyC3lJQy9KxjN5CXsmdwhglMYu3JB1bOJcvK0HaHy4ZawQrrK6UZ4jpvbv7Q+C2KH8FWP6cq330Zi8uzVuAlnke51eqolvkCsHd3VJNpqXYaHbkL6qbrxwu1Jj8XmfDTMViWuhxcZ+gLK23A9S1bSooL+fLecQjJXNuWTFTd5ReSI7ZSa2uCTfHadWwfwn6BPyarx32as3mKfO04rJG4L4bfHkVLtrdzoZgXpFJhAURpYVUPG8sKPkhigOXpmcOZJM21xTpAqknM2ai7sy+vWAGJ1tE4ODuGXis3lTIXvetJfNJa+KYuNUclWip+/Ga6JDkvcbcfFrHlLZyEO+YDxKa0/KYjMFSb6PNUKx/c3rKcGR8VFNnKNh14s09mHWvUuQyodUrUWG/DimTmjIrWkbvZhhym6QHAAyx19EjQppfia/Hu0qahpH5sQKth2LN9djacbzJuXdHKb4Q2ZR+GK5G5Ma1eFdOcBlCQC3eunwySZwYiJ/L4RgBbjqAefGu1DXytzJDrjMCGZ55SGQuWxgvRcIn869a5dlHZyN7vemvG8tRECrynEtwiuZTuqZIaSHcKLXSkrUjrrCE0jbN90mXba6X2Kgj9iuiaXnFlRODdTR7beo+GOrslP1iaPps9YQpuqeol9Wq+Yenl1/0MvUKeWlj3nPkgFdmwPTNwlWGLEuLiBP2QQZ9dRmR4//M+udbXHbuyONR5Z8O5EPaigXbbjIfCHTYFGzPPl/pjzbZnzk7ufWAm6nlfYn8kkbVk9v6UrtTLZvR6RAh0CFZr1HaJPFL7pvkhQ35M2fFjdv5d2HjDv5d3LiTf5c25E+bLW/cxb9HNiToIfO1kj4VOLrWbCIFcsewfli5kOxxwTmxIdDL2LZILp97aXCFeXV2ZVf+vYql0SW9uiZ/6/GaisCurXT497qKjPj6tep619C4gVy51HIDeEid0yfpjZhOkptkY7k5qPPvQ0UZjOwfFtZRLDIPF65uYcaFziPu5p9HVtak9aNKq6vC5qPdm53HtKXnx7ZlAN/itqvHyV8cJ/3WMnaQ9PFMHMm3hSXzZ0ifcGpV+Px2DD7JraER0G0ymNsFcIcM7k73Jy2fuGr+ouVdqxWZmSeFLWOpn2xYeMppkzy1VS137IC/I2x22+aznE+r1mU830kYSkb49FppNZBxfVe10TJ/8fwZq91Ox8ilZB9ykVsV/t1LDxZoJ5m8Cnkrw0BWU4ltgvxas9uxtNaxW+wdZiY36uAIW1XjM9g/AXCyFqzbB3OnZNeSodREl9sTbK96ZqJ3DawgyZ2lVstcc9o+b14tNTAJ5MpiKWsB8w8PIvyKMxzVxpoQCNxo19xMr6Oy8sl6S2eDgJzNVcOg1DZ/CfZk/rHbsUzvH8q679YbqdI+gjgGoQtH6ZGVqrzJbxoeHl3JPmT/mERij5eWdjl/m52JJzi53iopaiV83oa3KFzczpYqvT4R1c//fYQntZunSZ5MkhB+Cnmhbbh6akceHJJ5egeva9UoWSmdV13eCMqnuLgm78n30cuBUW0fqySqVYDpruOkmORzbRYSmNhiEe9iqgZLyYTbPpcTjCNhuc2duYWumO/MSu542Ko2Ur5OwDXJ5SRos9HKK0StbK9XdtpBIL2Sv4r5Xm1a+NUyAtJrRH4WdK0wSHqdpLbP6w0nibBuoAtBJ/sQIUt6o6SO1E0iNRwqsqslLvoF71StKbNVq5fad3dNi7p9vUkOPaub8TQNdqVassitNHe3VSzL3lH7QoDcZXO27GGZSXq4m5JbKixBB3tUUG9tYGSlx8euBeYe4VswZHaFP451FLTNX13+1mojhA3b6tuTZXeH6LPZPSjcFSaG7TswNkyOfVL4NEwOF1dJ8TtpKeL+Lhkf6TOS40tbNA0t7t1GIUwKt1PoJIU7KHSTwp0UNpPCEykYVZXCXRTukYLh8d50C7hPNhM7dd+dbTXfI+vXLW2K3yvTGPScrO7HIVg3VqVXP/SjQU8P4kF5FPXH5rOiOnW8rAcY4auIJ/MhPJl8VQAcHyb9EPCOwOXULDG2+oRD4pAY2+F4hV+W40TL/UJQee5vWKjsb1hQ0BWCt+K1ziP72MNSWazHJf70BSWvfMlfLOJKWgupzM92Ok37Qx3K2mQEIjUAvBLmNf3dYXZsKs4dm2Lq3SNs/L9DB6fh2OWLhDYNYmk67TtCK7o414N4e8bvlD+Dkp4AUT9mn4xO/CqvaqbUtzXJs8LCRbRwKWdC7uM4uudMjx/DlZxDMz81zWb1U8zqRfUBlUyt10+ADNPR+wT0NvqEr3K/XE3QE03Yzderd3oXt8gx8GkYCAhRGT/XxU2jpEwDuWn5PDjxuL8f73Jboj7HQSZIMRwYijsSerPIWbUQoC426RfyVfRjZPVFZDXq2188Z3Q7UpU/0eNyh7ioQcfYSN3FiJB6aSzeD+8Nrf0tYOI7vVJLPJBis2HeSDFrlBZkyw5LmwH5xZLUL4VWSVucRCJOVX1kLbMNdSIiICjpyLydN0UdzH00kbll0w+owAsw3oCeI2jlWSC2N5JfRJxQeua+JGJKXO7ZUgPJMXw5pMHAlwgqlx8kyAc1G9WRiR5jDiSQ5LHEc+HPpg2gbSnfBCCrEh2SAOKDR0sLyWmnOmgSa7B5ud+S7wPAavbzMQoEJVBGW8zhvE8jODlByvl0U+qF65L8HQldnOGpo8Nj6Y5pJhIva3Wvf56kMIjMT4E3jYIvq+Klqdhq7TlS50yR2+cU252J059D7RNp5X5wuG/uSx9Inh35Q25CiMwzauxDNNuWN0rFcxd1FauvFfRCSn1NTKD5DW6UdMDY5YiPVfV2+nvDkTk2x8JFrL5OnDNHE8hXieAfxOb0LqeabftFAthwfRgKbUtce5PRwEKgKQ8w0oIdbyi95JENgGrBTfIW1bY0MCLArsWOATakQJtYKm1drJ5b1LZhAkiw1XOKmAFBVc9LcMxySDYZpbkJ5sJLbr9NkDZDgQrXb/LxUCMvHTN0QeGKxrYl0FnUvgjHNELN4+1drrA2UxmzwTEC9Q2sz9Rx9vyi8iNL/oWY+/8fsyYAAKWaCZhU1fH2q5thR1E2AQEbFQU1imJEYWiuYowbagwaJWoGBBVCwMi4EI0eEWYAlQghUUDNyD8ouCTgBgozXBdA2ReFIIoTdxM1Jho1bny/t/r23CFR4/ekHw/13vfUqVNVZ713zGSy1sBajH/skYN3v3zURVeOKx911lm9Rw66YtzZva888uTDy79nra2NZdra3pnO1jWTsUw28+C+V5eYlZRkzLJWkml4/JgLL//Z8NHl1ijT5Doza2otJPi52MOqs9bROts+mYoGtDEZoVfraiXZhmcMuXh47vBvatpasNC+ZeZKmtO/2mdo37nhoCFDRw2neWNLDDSfZHZ0pdkZBUs3mh3mxiZlrOduBYttxpuFjiI7Z7rYPnYAcWV5EtPg6unTphFUxg60WzPWyb7MZBqNyTQID09ubQuzTRZmmxW6mGjWs9BFoaH1civEdaRABjAtM56Opvu/v87YjIzdk5XqPP93vv97r/9raQ9N6/cQ1++B557eSRbb3kkDwLSMTc9Y0fw3225RZ7vCrHt92zxf5bZLMOm2GwKKthXADP/3G3vIJPk5KGMldLL/BLNcw0ymovzKNjdY90eylTdN6tXASkQ3vsHslobWqB3/ZRpliyol0AH6Wot6WaZxtuLzIT1TPpPy4089NeWzCd8kW9Gs9yUp3yDhm2Yrbuk6IeVLEr5ZtqJ9i6qUb5jwzbMVVR8tSflGCd8iW3HAn7emfOOE3y1bcf/qD1K+ScK3yFZ23E6kRb5pwu+erbxgQ9uUb5bwLbOVVcv3S/nmCd8sW/na44enfIuE3yNb2X1B/5TfLeH3zFaOmjsw5XdP+FbZygWzfpzyLRMe/Q9/NSLl90j41tnKoydemfJ7JnyTbOU1v5iY8q0Svmm2smbMr1O+dcLjf3b4XSnfJuGbZytPGPzHlG9b4JtmMmeOGTqmfExu4JjRY+y4MaOGsdNcZ1U/aNBmn5Ff9Nx6zYI9N5Rfc33tG4e9/+Ds/veUWMNPmtlumd2vY3dp2c7GXzav5gbKhLO/PG0CcuKJPfaaCJ44bHPFRD2P/+VHFXAV61r3qoCv2PHWyArqKt6pnlNBfcWn01+oQKey5MimlehV3tSlW2uWhPnS2X8C07ewdHA68tUj4IumTQOe0tXga7m4Gli+uYbZDMoshYq4Vft/WwrNLWMTbMan2crciZUNVFOvunmjA63RAawUb15IV3GZ7Jn1iOv44jLZM6sspHxxmTTPKjMpX1wmrbLKVsoXl0nbrDKY8sVl0i6rrKZ8cZnsmVWmU764TJpllf2ULy6TplmNSMoXl8leWc9HgSyuhRYebMoX10J7Dzbli2uhmQeb8sW10NiDTfniWsBJgk354lrYw4NN+eJaaOnBpnxxLXTwYFO+uBawQ7ApX1wLe2Y1JVM+WQskR9M05dslPHvRLv7slfDsRUznlG+f8Ojv4meHhO+Y1bRP+Y4J3yqrpZDyeyc8/rA8Ur5TwuP/LnF1Tvi9s1pGKd8l4RtltbRSfp+Eb8wp0aVbyudSfpc8dE149qJWTY9N+X0Tnr1ol/zsl/DsRbM+OC/l90949qJd8tYt4TuxHHdclfIHFPj/bY868NvtUewR304RTrNEM0Kjr5HWqGoENVoaGY2CMq7sKpPKmjKkbChyRdma3YlNKNnntF99y33O7xX19rkFDbnoaUF/8z736edv/ec+dyjVE+3km1kPX/RqgLH61Yc2OsYaHZ3p/FXbYGPfGVI+k/DNfGdI+WzCf9022MF3hpQvSXi2NfKX8g0TvpXvDCnfKOG7+M6Q8sVtkB1gF/v/bRvc56u2wU4ebMoXt8EWHmzKF7fBnAeb8sVtsIsHm/LFbbCrB5vyxW0Qfhc7xW2QbZNgU764DRaCTfniNkgyCTbli9vgvgx7/X6L2yDbEZM25Yvb4B5fsw2yHTGpU/6/bYPYZ8GkfHEbbJnVIkr54ja439dsg7mv2Qa7fM022PVrtkF4FmrK5xKe7WuXPHRNeK6CLOiU3zfhudrtkp/9Ep6rKQs/5fdP+NzXbIP7ffU2yEqs3CWfByZ822zlvGdmpHz3hN8/W7lLnnskPHH1fGhByh+U8N2ylbvk/+CEJ65H71iT8ockPHHtMi7fSfguWd9UCuShCdnWF1HKH5bw+/siSvmeCX+AL6KUPzzhC4so5Y9I+AN9EaV8r4Rn8u9i58iEL+wYKf/dhG/uiyjlj0p4Fh2TLeV7J3x3X0Qpf3SB/9/OrGO+3VHEfv/tFOG0pLV8tVS1LLUEtdy0tLSMtGS0PLQUNO01xTWdNXU1TTUlNf001TStNIU0XTQ1NA2+tSP/cfAt+MaDD+1N2UzcKPvgvvb+f34e8M8J1/Y87LBfduncWa1VGugf/65Q79x0dV4ELeQyPf5zbA7KHHvppWeNHX5Zrk/upGF8YRlRPk6P1oIemlmWrx189sDu3Mx1F1/0RnZV5nBbnSnx/tVd/ZL2v/e4laf0rueEv6S4E1/tQnn5ZSOGXl4+fGyzg3PHD790+OhhQ0aXj8WlU0eMLS9NPMxbC7JSz6d6D4S8q4P/7oFfH77eg9MvHX7ZkPIRY0aPbfadfG7AmJ/pY1P3EaPLcyOGHZI85gYccvrQkcMvLM+NGTpy0Jgflo+5bHiP/3+f7szs5NeSsrPlY/Xwmmy9B1u7y9OYTEZxZAsfoHbjc9m/f1rSY/2SjsWBquZBRINrZs2c6ezB9r840sBTae1sL8tZV9vX9rPu2A/W46TR5UyegcOHjbj8Z0rsf8yj6zIhk7k+Y+O5vXFJ4yKWsYqMVWb09WxyRimbPbMDKSNjDV5GI2u3Zgtf7tK4s3Vx8ySmwbXFwA4ktL2vWnjZJROzNolq/0r2MP8yCZpkuzJCTMfsvi5bZPej7SPZTIaHZqq0R7MZs0VFZhKfscw6XE9FNxubudyutKoMTV/6/OmmWf8Qt6/xgdGDHj1kVO700aPG5QYMGX3FkLHWqDBYTa2wzgt+Fj4O/tvnxqkE0qhHGYbNdu7sf2wJ0nq9c1/0XYr5LzqWfxRth+ORVnLgvI4OzDodL01JNUWjExW3HQfQLwGqsgUNMvVqBWYBol1AXdVtxxna+jkVltUD0vZfHShoy8nQH0pOpmAZwKvqQH+0470ThwEykE0dANRVCaBtqvstdf6rA+6AqurAb90TenBLABkQWFYH6qoEpO1e9i9ZP0E5habbituqI8lCo6jgUInAy/1nRWG1ay5LmiouB4qrEOGyktfQE1D5c4JlBN2CUyUCE+hnIkU4adofDQfL7NCMJT84RVcHahWBfnWA3xvMo7RW4BVAtAuoq6r10PVzit5SIG3/1YFaaZMPIC44kHZUsJSAuip+2Ba1gzr/1QE3qao6sEO2ibtgyYEsuSd1oK6q9jgrQ73wg5OFOtBkQInAnVW7D+juK6TNgMLQtBmQbepZbTOg5ARfL6phD0QTwa/JAGwkv/eyGf71H6QMO0h+mUK06guQObTlgMJ8aIsl9dVWltRX2wElr/jIqyYsk6akmqKhYGQDUNp69wGaCWat0VDT1tKQsdYDknlJDbmVpqSaZtW9AB55o//SH8DDUMd14Js9EMBYErEaOVAjgDr4itAFvtFtB3XG+F1FD/HmvFn7PO0HFsG+AKlZWSkSEK6BOUoLpCYBoQMxqMrehhFI7GAxjMlbXImh6KkE2J15q22kZoUq+6IEPZvWjz/l1FANiBpTbSflE3Aaxj7MNzA7lwaf8nARxfpDjIXI0vn1yBIRU/J8QWDzmJG3siYQ8e+oadrfovtdorHCgcXbkGoS3gXsxOBnyHfpJSrpb2F73qqwY09C5JqjPg/DSDrIOognJDUB71y1E4Ta2mYC+AyDU/rRP9bNCO0FZM9SNOjfckstxiEkxO8cWPxrZFiCQ5MAcR8Lv0SeWIrLXLrs9lILFyNrRZwPaNXPwg+Rpf3IpEAxeQBjJDdATcElB7PzFtYS33yIsAqwGPJp5FMQUTW163h4kPIcRJhH7XYeZrpEY5oDi6ZQtom4gdqtkFcj1cRGU7MRYhhlDUQYTA2xyrV4Wb7gY+hMjVET9kDtQkojiDAK8DHhXIV8i6TZeMALEJORm0RMA6wmrbNcQsx3YNFDyNchYmKwnRBPI9thNF5FL4fQN2HbySI2AC6BQDJ4zFGATcnbxizpqmJK+FyOAeFy6QscjZGG1DSFKMsAHiK/H9BuGH3aq4CYVbEGWduXrDwCYCjtNpdojHNg4VSkNEIOoCYZ5FDZeAqDD1KqCLcJvdg1gKOplbwcN+1aauWZyYhAAFCF7kCYH/DwQ8p3IcJgiI4U4jRZC+WAv5GWG5A76C+6CbAOi7e5JMzfO7DwB+TLEGEx4O9oLEM2w4YxikxuC88ie4tYCzgzbxESP3AI4J5VkTOArW1kzMCNVLdBX8C6kvV1EAdBeMKOhHgaohQiYvTC8ZALkadAyKtAFzYdeS6EB3IhZSDl5xB2ADXX8dCMMkXEi/g8g4elhHuXiDuSqJDxsiKhQa+GeFnESzT5G3ZaUD6FwDtusYz7WXkra8TmEAW8JKhotks0FjkgZYlGeI2NgSbRh1TIRq2mCUatEVK95JoB1qOFjJaSrpi2AKIE2FP0vYa2z0BEqwCQ8XLIzRBhGQ/bKA9DvAQR3UvbP1NwCInGVAf80RitHRB2JcSLED+F2CqiDLAZYjAV6yDCIB4YTJfaABxoCM5Fc5GICwAPQsjGHyDsKh7o2iop94iYTs3/8UDxbIclgDvQUoJvFfE6GrdQPoSohDBt1L9Ai8SE8yGqSEg4lt1TsmNC2LsMHxq2gLnoTS6BkI09ICKyrYMoXouM+0AsAnRnhc12SRN6AJidglygJdcJcH+p2acMdh4btgQwnTKLsllEOfOiGVqSB+eZzzgFoGYAoC1lIKWhiHNQewc1LbBtajsOsBxDSsxSiHgaQLsEuUDS/70OLDyMdI0awAqCWo7cAhFWA95AYx3yMwhfME1IHZIVZAt0QIa7IbWpROpKm8qPkd1Lad8d8AkRliAn0t6W0T+7o91KaSu3ywDfoxYZriZCgdgHRUCWUY1iETWovgCRpe93RHTjYSflLEbKD8zxeMYSiO90icZSBxZv4mCXRvw2s90g/kXFe9iIORajl6htwkg/DWG7MbD3YxQZTZVDgDBE4Hv0WwRMXXRPhenPw4+QPipDeWjPQzmyCUR8A4BdzphurGlSdDuABMTKvc6LaJkDC7hof4GIX6c9+Yr/jtyP7iLNvYXUVLGY7VRU/4Lq70mvzzXlW2lCcg8j8kjnYpjuwOJJVG2FsGsBrDVdbaLVEIHFF56inI3WYhFEY3+A+D5EVZ7d4Pl6ILobFQcLYTeiukQEHsRPU1ZArBGhcNTNI0j1G+6jCY4kntmHGdwMxMi4EP0/HVjE1lSlW5ExDrqz5Fr01y5GsnkIKzHkw7YK9b9jSF2FV+liHV1tcUnbZx0wUSAVos7gCFLJDhrcUEUtHkYzIR6FMNKkmKObIebkSTaAHyutZT0Q6bIXSKWD6EbAW3nyIvAKZjSq0b8odJhrQBjRKnolriRQQp6rs1wbnd3FUDp4j6EcS797YiFUAA7Bwh0uSeRDDizEaLaCCGsBTCWXsuHgAF8c7IJMh4gmmgaygaSXSgdsH8hQCqFuuzMdJe/qZwWP4o8wL2BcKORRVXNCkEdlrfq7NWTBI4B7FLsGDuTUBOk2BCJGJUIj2gIR0SQwALKBpBc8ArhHQRrqNtBEEht8QMGnJ/BQh3YZs6IOVHUAxEvwrgjslX6FqhRowLx5HVCV/TRRFvDmqqoDdGH/bKCO2XKiyfIKYPNodBP5fkLEfIjtELVo6CoemuP3TsoR+K2dxQNgpCPShkRjtgNfALUNIeRyjmMjeoaEfJRnHgEskhPM8RTI9Wg9VQLxaoBfx5YBnuF8eQD5vk4P5pwGN57oEg08ALhLhd23OeDzUrM/4/wk2bgXsJFyM2HpWPM4B6IlqZunABkwcjEAeoJ0BC4i0hO9YPY0wMGUH1PRTsQlAKP8kvIm/cSTAOvo41aXaMx3ULiGvgsRPQFoRB6eQXalYwc1GFONgg6oRrpoxGq7nXIbZTuE/AP4W0h4DsJGoLoO8jykbg12Og+LKSdR5osgBr+hS07OEyeA6OxVX5Wkgx8sINIK143PgSfnbSyEH9HZ+zwMw72PRFzKwxeQ1yIzDG90I220GmZCNoaI70GVCRAvconGGgd+3sS6oUXvAdjUuZ0ltzwemF56CbXwJ4gy7f1P512Gu3FcgB8JW0+/RRDmouuArIXVWF0GYeRUG5FSGm2ACI8DttBuIVoyH3DRUznbJcQ0B2aTsSGNOFBLk8CCtU0QNpKadRBDsLVKxLkQy6k9EyLOkzMAPwDp1K9Sayuek7ey7qRUIFJuaxVsHdhOS68qAjsN4wKhJw93IztBhPk8NKXHPyJ1I7FHAa9yoNYgde+JVwLWQ2xyCfGCA7SQemcLfwU8z1B/gHwBIv4UsIMdgSMGWxjlVsD7nk4gzVccYthsMWsqJ+aSUj+weMOl7Se0tb7J6/QSiFcA8RKLtyBtKcZWA7j3Ba1gXQSj+Q642SADV0WbCDijtDCn2tO/zmT7BQvoROSzIvoAmpMDZIjIkICnSm9jKVA6vaoI6lIOsCU+27cmevZsoifg22NOUdYBH0KU+SVAVfH4RFmA+0Chqg5gkD64yVltD2a4g+8wd5lG0eEibqDVkUz5SRC9IWwqW/Ix/S36DXb7QsS342wpGnNdkq7FDvRCYDlvsg7VIyCQ3otA3BUCjdAJwpvsldjYC8KNQqiXuD2Eus11RAM/qtREjtk+BU/L9hUh17tBSPboz1/WCMw60cPgGto3cWD2D/JyjggmVDgLYiHSP3hspmZtNTWvOTD7sh+eQuilzjZU+wUaiUY3BxYORy6BCHnAPRDfR/5KxBmA0RCDkGdDaNVZvtrsJ8hW1XR3HWBxKWADs9OH9QhS7EDzrCzPhLgT0AMQzwP8BBDeyBd0OAwLwO6lag49hLmA1dV+cbPPICLMhLY1Fm6COIiQ4+vzeFpjYVieyyOEnQAYXFPMEvNab9tBn6J0kgjohpzTHtYfIm5CDbq+qL7sRxfsBHoH1sbqJ1asJcodx95ExqXY2A54vy8JRYbH0agB6NR7wCXEHQ78DY9s4tUEwIK+frPxa7OfV7WlygDfeeklnAXoQy8DkRf1Iy0Ewo9s/Bq2DuiI9hGoA34SXMCc+oyHkeRS3/748uDf/iLlR3eDMIUYWRiafWW65UZVaDQl1gdcolHjwMMKfnhsx1hDmihwHS86fMJnPHxCxT/U7U7A28xeego7IHLqgfYRdjhz0CDf0RyaIePJeVwGBLLBmGykv8nSAYQZlA2UO0WsB8zDiiwtFLEKYgkdr0DqdI2foO1qiMcgNkHolue73f1IPzR+z8N2ame7ZAh+5cDCRMpWEVdBPMfDSHpZK2IYxCqIC7CxXMS5AHryNFfncR4Q9qUmDIZpRxkK0RzCRgIylHLIDzWeAcClR4ubTQkPpwHWMoK3u4SY66DwrVNvutHDgJchHkP+DSI8gcEs3hG2taGXSCEfgFMkxj8NxeshBvKg1Ol1ULm0ch6QpBmXAWTZntDWEW+mVlPJ291GF3zCNdu9X+FT0IlMzGg2gIMhmuASi2QDYKEvMtcXoj3gKqbuToLpKRsEYbdQ2Hb87mW/xeA+aCHtfJwQiHxln000RcBdCV0BTCujYX+I8BOI3SnKqIkgHL5i+mbvp6tuOeozsBkg0ZjjwKL7kPUzaUuQ70PEMWAnGsuRzTAaP4v1NjysReryJ+CelTF16wA/klXImr8XxI+CV6OfU20RhBsBqqoDfELB5oh6wKvsBNwuAm+uqjoQt6NfNa8DVCXvBb+ggbxxcBTVdjXVR7Es49868IlUe4SIJwGHQTyXt+ggiPAaa7QbxPtUdIGIvqCmfX/f7Mr2gKhiG4zZArU8I99Rdie+l3EbGT+Nfw70Ai4QbsZHVPmwzRCSATsWH7ixhL0hwpc8fMiI/R25hPTb64AbIJ5H9hHxNCAuLUy7qBSHZgL0u94l0SlMfkR+Kl74exLAj31XekVmpjootPYV83vA53T0AG00ztEiwF44W4M8GCKsQCOirKH8WMQGai5DYxOyEiKSk6RUkoC53QKYOEkNRarc5AptIwUpY1+IwHpoSBqqIfR+Gj8MsQf5mQ/RBsKqGIp2EL+B0C0gmoIGJ5+GE0l0pzqwZ3VwRWtQ46urT1jLseqeQeoWGNEVX/34voY8mdijZYD2xL4I+SdpLACEUovuQRqE3SnwOAcJsmoJxCQA51S4wiXEQAecrUjrS0CNAWWl+nDEqqQXuw8wjPIrygMiLgK8TUGS6QKhlxctertYxGOAiRBagLeI2IcIZ0HQW/w7iEDs2g7j2S6ZbMzgFDwiFYAP4jKIFSKWYmAdxKMUvaQp3GgbWncjX4QId1DzMlrTXNJvhQOuqWhJw0ah+gLEUCqeF3EuxEYeBiFXQ+jSEy2HQFpNntG5kWBqqBGItI3OJ+U7RDwD8R6qGUh/k+rCatPJeCI29K5lY+mXxRLPcInLDziw6EmkNDiY/G3M3kR+JhsfYex92u9Eei8sMp8USCYXDgHoslBj9/ezMuYfY8CUYT3bW6WFjaxJab0dzQ3wY3FNAT2FcsAngCeNvRTibgC36RgfC7v6I4CPifFxYmxIhxoK24MHvOdVvjBY4UqA/c4BLkx1UPgLy88h9OlPX0BsCKVMxJloDKKcQjlehKbOd/0hOWsB1oaHkyiNIfzVGkc0WHwZhrgQsAXff45cAxEFAMEk0dmxivQc8Kv9CF77Vh1QOnym1gHfW6VcB17tZ+dhIcdYcs5B3k5f1ylOgC0GqKq2KfoC0QYYLan4LoFBuD1bACb8BiCdcHoCMOjG9SmMNYVNQDiN2rAor/su58AKwO0CYmTTddSLgPdbxeBH8kTA3DeqMGhvaxspa0n1bHInEN+Qt2g31M6HyCkJvQp3Q2sJUSuntvTzb4n8EYAxfAdQykR4Een7yjpA+1KLlyK1N4X7AOwa4VaXaIx3oCsJO1AfNEoBEdvIPkjDqGUBg/CQnmyuiHmAP1MmU9rhhw0mxqPRomtmC0QOHyZAIImFCAU2JDV8DKUHNL4QMZQXaU32aRCtWFf8vcTK9oZ4EelvViV5K+vBOHRFHgpheZLSC2IIi/a7EGE8w3U0aSMoJEHd78BCDSMrDdtI2mgSv4yUjfAexmSU1FWplzJyWUu3ZazEuDVEzGtHoJjSvzOPBuNhb9MMSSysUQG2Qe7HW+lH4TnYQXhbcPGvEDrXdQePcaBMF3Nbhwc6wVdC7AahmyOBs/VS0Q4iehCX2qMxn6YdIcJdqOKawkNC3OzA78c517iaTNDExhC3bNgFtG0NcSbGvZcTqKFbnafB/eiLhzimcQvyNByF6g4eJBWeAOEVamwqNajG14voA/FTiP7IsyHsezxgkKVioRuErojab3RTClkRV/DwLkPMhOarKMRNgM3MG4JCYmOOA//6zoUQjYcAf2W6PI7MYCN+EtASg88g94cI63g4hodNyEEQynagS0//9RA+HmRLklgICkB0tq2EYbPT6E6vNQJ+9DKjo1jEfXi2DQKX7R0Re2HkSwjl0V/SLsdQUwZlpkv6XuSg8EYkjehNAE3ij2nmNljvMhoxDt5L4K8W6lYSP/AOECYkNWFgQdX2hlBbvkYVjOlVN7wJ+ISVTXdcNtBYDODyH890icYVDnzoCxp7AWjiQcmGopRRhV3ohTyoW5cTcEgAz8hVyOOnuwbgruBjbieJOIWagynnUtqKUC1fL/TFla8ZmJ0CWIWlmS4h5jswexjpGssANLEViY14DQCjxlh5L9FmAIYl8YMjAYBrhZpoFrVSnQ+hthoNGbOnIGQ9Yq6oO6YIBP1H2yk4hKTJZAfusmsEdUUTBeU2FKUbVdjqRXlQt5I0Z/AAeGaHka0ytmowCdzNyQJgF2bXoKoOUGVbG9Ig5qbOSy17urab76Crkc9A+B3jXrL5ER2fQ67C64DFDCPuWayL36MABtrwBgmhRQaR7ul9AGeU+pcWa4EN9lD2CPL9HGW+iPkADk9dlUIburXzAL3RKkUOEdGFAZwIgYzuwH8H65Ka6DVq+tD+ExFnA9hHrZK2u7MU7B7OPu1P26noCsHlwHI9iL87kR4KYSeQp15ojMDOURBRBbvg0WjMckkT5jfAJ3zZkRDRm9joCfFx3qLuEDnWSFmObVypawtRRS6rmkKQ3Fh/Qom30t1HeBhvoTsSG7NzoEH/WI3Zz7Ut12r7Z4FaLZ8AdZWq7QBh9+JZp4JDSDSmOyBl+KFt2SbgCB8JdWcN7SE0iUJbCCZRbUsIOwXfOVPCcTTVH/6sFI1PeTgG6XvEUfixA0JyHS4LkO5CDS89PpZhFIR233Ay5STUDxdxBg/78DCY0gqCCcVWRLkU4mON8rUARjnCjr+fx78CbGBQZrmEuMeB/08TfOOGqAa8wzguRzbEaLQW0AbvONFYoRBbIAbgJcmlR7JMugE2VRPbOlOjd3TrSpt30dcH+mgnjUlGlTZKu5gahskqXaJxiwM+e6DRRMTvUNetZy6p1h/Hovl5K2P8dNDX+ke0P9L5FzRbSNEIR4xb/DnNHkNKw2roVk2eQlM29JoWyegmtNSLXi+829dcQrzvwD/4B//MxiUh4s4eM7nLZLSKwaQ7i9mv7U26NeZQUCKQ9kSesAW4QxVGtQiiJ9AVMJywlyhaSIEdyNjN+CqmIwxrWwoPES7G2yBirXlpraZo47KVDvT/v/HHCYiYeWvbKDU02ypiCc4/D/E4hL98LQZshFhEhboVMBlGRmsSIqwqEGFlniAA/NjjxtYDQUEIRAShORbJWvgZYDPEJah6EBfi3p94OA+pIOwsHrZTBlI8iOMdcNukmWscxQNNfKo8D6E/bbvRHhS/aB2AsbVo7Q+xKo+LAH6AdkznIoh85nWmMQO9Uh9nZMlmyAIgUly9ke4nizL8kzIIUvNB8zLH8g3XQeQgopuYbQcxnrNo0gtCq6WqL3Pi0byVHQthy6n5PnOCASs7mb6jWkBvaiLCYdvSzVG7FsQzGDsY6zEVB0AEjET8SUFvcUHbVzSXGJtD3EmFQdhMwF+o/Q1yfR5iOuBhvEOGGXlCBXBVK9SE86lFlU0WV2+j5k0W9u3IeSzsaA4gx8KeL8kxYgsBLap9xdg11Tj0JGAJxBrkWyK2YKxZjQcVOtQwlTcBhtXQdjkq51DzKEQEocxYjxpPVWgModzpzxqezFEYU3btKg6pQch2/SCOAzzM4DEg1j5Pd4cAzqY9MkzNM+kANiNvY41xlLf6/1AdHF1t0f8hN1bTEyHbfjV+ltspNSTlSEC3Gnr4PiBTw9tM3uwhVG0I4OTqgrylL6oCH/QjMlkVCAI9S+1Vnzwd8ppJDOvWesBOXEqvAhOJbz1yE7bjlYA9avxeTybQuDfPxl/jn5PCaRBKRRgMcZJL3Cl1YOHQPJs4ROia5wZSoxNZ6UWjOeBHEJk8f4YQ8fd+hFNj3Ji57CtYXe6epH/7F2B5tVnjPLuEiFaAVXjYGbkagnlRGJIjXKLRD7COJhoJ/elJ2Qf4QYYtmowDLCXZNyDvETEZMB3iZuQFEPqCYx2xIXniUhwCxM/nyWSHeoDkkU9NitoezGyBqsOZ6r+llZaLv/OUstQedgmxwoHvXDlpRC+iegQEsmADEPNnPWmEThDeREe4bOwFYXMc+F+4qqShbmvVRLJHf1vvbwWzMaxbqtYfoPDlcwtEvAjwCmuoBvmJiOWAxnT3LKVdni7XQhxAkTyGWBUngBqBlnTDEVIw9jkqU/sxYMgjIaKXALfxDfAZZGBB+gsQ17jodpcQ4xwwZSVLIToCDBsfUaZgwx4FPEf5DW7vTbc2EjAQLSSDxnAA4ilJTXQPNaia3kbsEcA2iH/S5K8Qbv1LIjspb2V+UI8jw00ZJTKEJAYyCyBLaDaCiF5maIkwfg/iY2yoffQ2hZOXwccoedDGEknem8ehtfRwr2oEMChjoVrECgAlXga5FkJLKWym/JH2W0XcDdiOxiyX9D/Fgdl1aD0HEUZQi2E7H+JJCDsDDcYxnEzFPIjwPQjaS8ZT8kxPAKkq1NjF1KBKDiBOBxxCOY+i4Tas6yodrkW+Tv6jKYBV5HF2Qf6Q+ZTjE3KZfy1emk8BP8BP64FC1TmlKeAizJcnmtcBqpL/J/klWuZxQSD8AI9fQA6FsK2AsdSuh7weIl4BMYmi7OlsCPcT6Qw0ZlJmibgc1TnUfh/iDxDWEY3HePiUybJSRAx4HmIO8g0REwEfQyBrdZsSKNsTV++nQt8k9C6f2x+iBbb8LxuH5q3scEb9fFaBX+Ar6FI3etY6EqLGgfdUJo3wLo5xxQ9f0qQ7RMysKWPBBu5bOS3paE+u9zxIVhlZsh2sbR2W4SX65Z4WttHWv+9j1VDjlmJxG4iwgm7a4+ESpFyO/0j/nWhS5RKN6Q783h1LI4xj92EMwkhkOxE/xmhriB+isTuE/iSgW6Fk7IkB4FBhL/1XniZl1LzPQznB/QUiZjMNr1KmQe6A8Ovun3hYiKaubLrdBbn9HKTGI34dYhkPH0I+IqKEtM3FKe4LXJ+xQaT6AiBp/RNCG1AV2WJseNMkl3rzj7/EziEQMdm2SaW6DfHBlw0orgG0X+r/bzQSgjwAOJyQG9CwboDFpfzFnzk/GBv6euefFSZQdoo4gt2kB1pIG5pneR3FgyZq6A04lnIcXvYQQaZ0SPmfFRtA2GWAt2hXgXwBY9GvAWsg5NAaCGUI4JfcwgvNCsAb7Gxky74QoVFvRpa2ITtiNGZehIMgkKygwq1QZ4evDQfnULuF2r1FbAQspYeVyP0xGNUAIu4tC5F+4s0FrKz2sys0rCEOFpt1r/G/IaCOxlmAc2qY23ldl5ikXQAdqAmHAVrUFPLwD4yFMwFrqv3SbDNFXAHoU60diVspYxBuBLxTWvj/s2f2w/qtgL/101JOXsjuAJBDSdO9SSDMSGrsQYpUV0N429cJF2PhUxFY1/Rl57BIl9AwhuXDrVRDXnWgiFNQPwSiFKmLrL5W1HKzVVBxb5agwuTySw1x6zasRES6HiszEfdlpSo+AkK5yx3ETF2I3AdC2Y3aoKF0NxaxEc8+QH0L5Tk81AjpmilpuvMKhKk8/D8=(/figma)--&gt;&quot;&gt;&lt;/span&gt;&lt;/div&gt;&lt;span style=&quot;&quot;&gt;-&amp;gt; Comment(int id,Comment C,Object objToStore)&lt;/span&gt;" style="text;whiteSpace=wrap;html=1;" vertex="1" parent="zkfFHV4jXpPFQw0GAbJ--0">
          <mxGeometry y="112" width="250" height="100" as="geometry" />
        </mxCell>
        <mxCell id="lc6y13ehDyG2O-l-3n0m-51" style="edgeStyle=orthogonalEdgeStyle;rounded=0;orthogonalLoop=1;jettySize=auto;html=1;entryX=0;entryY=0.5;entryDx=0;entryDy=0;strokeWidth=2;dashed=1;dashPattern=8 8;endArrow=diamondThin;endFill=0;startSize=15;endSize=15;" edge="1" parent="zkfFHV4jXpPFQw0GAbJ--0" source="zkfFHV4jXpPFQw0GAbJ--0" target="zkfFHV4jXpPFQw0GAbJ--1">
          <mxGeometry relative="1" as="geometry">
            <Array as="points">
              <mxPoint x="150" y="-50" />
              <mxPoint x="-30" y="-50" />
              <mxPoint x="-30" y="39" />
            </Array>
          </mxGeometry>
        </mxCell>
        <mxCell id="zkfFHV4jXpPFQw0GAbJ--6" value="VideoData" style="swimlane;fontStyle=0;align=center;verticalAlign=top;childLayout=stackLayout;horizontal=1;startSize=26;horizontalStack=0;resizeParent=1;resizeLast=0;collapsible=1;marginBottom=0;rounded=0;shadow=0;strokeWidth=1;" parent="WIyWlLk6GJQsqaUBKTNV-1" vertex="1">
          <mxGeometry x="90" y="530" width="180" height="160" as="geometry">
            <mxRectangle x="130" y="380" width="160" height="26" as="alternateBounds" />
          </mxGeometry>
        </mxCell>
        <mxCell id="zkfFHV4jXpPFQw0GAbJ--7" value="+ VideoID : int" style="text;align=left;verticalAlign=top;spacingLeft=4;spacingRight=4;overflow=hidden;rotatable=0;points=[[0,0.5],[1,0.5]];portConstraint=eastwest;" parent="zkfFHV4jXpPFQw0GAbJ--6" vertex="1">
          <mxGeometry y="26" width="180" height="26" as="geometry" />
        </mxCell>
        <mxCell id="zkfFHV4jXpPFQw0GAbJ--8" value="+ Comments : List&lt;comment&gt;" style="text;align=left;verticalAlign=top;spacingLeft=4;spacingRight=4;overflow=hidden;rotatable=0;points=[[0,0.5],[1,0.5]];portConstraint=eastwest;rounded=0;shadow=0;html=0;" parent="zkfFHV4jXpPFQw0GAbJ--6" vertex="1">
          <mxGeometry y="52" width="180" height="26" as="geometry" />
        </mxCell>
        <mxCell id="lc6y13ehDyG2O-l-3n0m-7" value="+ Type : string&#xa;" style="text;align=left;verticalAlign=top;spacingLeft=4;spacingRight=4;overflow=hidden;rotatable=0;points=[[0,0.5],[1,0.5]];portConstraint=eastwest;rounded=0;shadow=0;html=0;" vertex="1" parent="zkfFHV4jXpPFQw0GAbJ--6">
          <mxGeometry y="78" width="180" height="26" as="geometry" />
        </mxCell>
        <mxCell id="zkfFHV4jXpPFQw0GAbJ--9" value="" style="line;html=1;strokeWidth=1;align=left;verticalAlign=middle;spacingTop=-1;spacingLeft=3;spacingRight=3;rotatable=0;labelPosition=right;points=[];portConstraint=eastwest;" parent="zkfFHV4jXpPFQw0GAbJ--6" vertex="1">
          <mxGeometry y="104" width="180" height="26" as="geometry" />
        </mxCell>
        <mxCell id="zkfFHV4jXpPFQw0GAbJ--17" value="Event" style="swimlane;fontStyle=0;align=center;verticalAlign=top;childLayout=stackLayout;horizontal=1;startSize=26;horizontalStack=0;resizeParent=1;resizeLast=0;collapsible=1;marginBottom=0;rounded=0;shadow=0;strokeWidth=1;" parent="WIyWlLk6GJQsqaUBKTNV-1" vertex="1">
          <mxGeometry x="660" y="710" width="160" height="160" as="geometry">
            <mxRectangle x="550" y="140" width="160" height="26" as="alternateBounds" />
          </mxGeometry>
        </mxCell>
        <mxCell id="lc6y13ehDyG2O-l-3n0m-0" value="+ EventId : int&lt;br&gt;+ Title : string&lt;br&gt;+ Body : string&lt;br&gt;+ Date : DateOnly[]&lt;br&gt;+ Author : AppUser[]&lt;br&gt;+ Comments : List&lt;br&gt;+ TeamId: int" style="text;whiteSpace=wrap;html=1;" vertex="1" parent="zkfFHV4jXpPFQw0GAbJ--17">
          <mxGeometry y="26" width="160" height="100" as="geometry" />
        </mxCell>
        <mxCell id="zkfFHV4jXpPFQw0GAbJ--23" value="" style="line;html=1;strokeWidth=1;align=left;verticalAlign=middle;spacingTop=-1;spacingLeft=3;spacingRight=3;rotatable=0;labelPosition=right;points=[];portConstraint=eastwest;" parent="zkfFHV4jXpPFQw0GAbJ--17" vertex="1">
          <mxGeometry y="126" width="160" height="8" as="geometry" />
        </mxCell>
        <mxCell id="lc6y13ehDyG2O-l-3n0m-8" value="AudioData" style="swimlane;fontStyle=0;align=center;verticalAlign=top;childLayout=stackLayout;horizontal=1;startSize=26;horizontalStack=0;resizeParent=1;resizeLast=0;collapsible=1;marginBottom=0;rounded=0;shadow=0;strokeWidth=1;" vertex="1" parent="WIyWlLk6GJQsqaUBKTNV-1">
          <mxGeometry x="10" y="880" width="180" height="138" as="geometry">
            <mxRectangle x="130" y="380" width="160" height="26" as="alternateBounds" />
          </mxGeometry>
        </mxCell>
        <mxCell id="lc6y13ehDyG2O-l-3n0m-9" value="+ AudioID : int" style="text;align=left;verticalAlign=top;spacingLeft=4;spacingRight=4;overflow=hidden;rotatable=0;points=[[0,0.5],[1,0.5]];portConstraint=eastwest;" vertex="1" parent="lc6y13ehDyG2O-l-3n0m-8">
          <mxGeometry y="26" width="180" height="26" as="geometry" />
        </mxCell>
        <mxCell id="lc6y13ehDyG2O-l-3n0m-10" value="+ Comments : List&lt;comment&gt;" style="text;align=left;verticalAlign=top;spacingLeft=4;spacingRight=4;overflow=hidden;rotatable=0;points=[[0,0.5],[1,0.5]];portConstraint=eastwest;rounded=0;shadow=0;html=0;" vertex="1" parent="lc6y13ehDyG2O-l-3n0m-8">
          <mxGeometry y="52" width="180" height="26" as="geometry" />
        </mxCell>
        <mxCell id="lc6y13ehDyG2O-l-3n0m-11" value="+ Type : string" style="text;align=left;verticalAlign=top;spacingLeft=4;spacingRight=4;overflow=hidden;rotatable=0;points=[[0,0.5],[1,0.5]];portConstraint=eastwest;rounded=0;shadow=0;html=0;" vertex="1" parent="lc6y13ehDyG2O-l-3n0m-8">
          <mxGeometry y="78" width="180" height="26" as="geometry" />
        </mxCell>
        <mxCell id="lc6y13ehDyG2O-l-3n0m-12" value="" style="line;html=1;strokeWidth=1;align=left;verticalAlign=middle;spacingTop=-1;spacingLeft=3;spacingRight=3;rotatable=0;labelPosition=right;points=[];portConstraint=eastwest;" vertex="1" parent="lc6y13ehDyG2O-l-3n0m-8">
          <mxGeometry y="104" width="180" height="8" as="geometry" />
        </mxCell>
        <mxCell id="lc6y13ehDyG2O-l-3n0m-13" value="TextData" style="swimlane;fontStyle=0;align=center;verticalAlign=top;childLayout=stackLayout;horizontal=1;startSize=26;horizontalStack=0;resizeParent=1;resizeLast=0;collapsible=1;marginBottom=0;rounded=0;shadow=0;strokeWidth=1;" vertex="1" parent="WIyWlLk6GJQsqaUBKTNV-1">
          <mxGeometry x="10" y="720" width="180" height="138" as="geometry">
            <mxRectangle x="130" y="380" width="160" height="26" as="alternateBounds" />
          </mxGeometry>
        </mxCell>
        <mxCell id="lc6y13ehDyG2O-l-3n0m-14" value="+ TextID : int" style="text;align=left;verticalAlign=top;spacingLeft=4;spacingRight=4;overflow=hidden;rotatable=0;points=[[0,0.5],[1,0.5]];portConstraint=eastwest;" vertex="1" parent="lc6y13ehDyG2O-l-3n0m-13">
          <mxGeometry y="26" width="180" height="26" as="geometry" />
        </mxCell>
        <mxCell id="lc6y13ehDyG2O-l-3n0m-15" value="+ Comments : List&lt;comment&gt;" style="text;align=left;verticalAlign=top;spacingLeft=4;spacingRight=4;overflow=hidden;rotatable=0;points=[[0,0.5],[1,0.5]];portConstraint=eastwest;rounded=0;shadow=0;html=0;" vertex="1" parent="lc6y13ehDyG2O-l-3n0m-13">
          <mxGeometry y="52" width="180" height="26" as="geometry" />
        </mxCell>
        <mxCell id="lc6y13ehDyG2O-l-3n0m-16" value="+ Type : string" style="text;align=left;verticalAlign=top;spacingLeft=4;spacingRight=4;overflow=hidden;rotatable=0;points=[[0,0.5],[1,0.5]];portConstraint=eastwest;rounded=0;shadow=0;html=0;" vertex="1" parent="lc6y13ehDyG2O-l-3n0m-13">
          <mxGeometry y="78" width="180" height="26" as="geometry" />
        </mxCell>
        <mxCell id="lc6y13ehDyG2O-l-3n0m-17" value="" style="line;html=1;strokeWidth=1;align=left;verticalAlign=middle;spacingTop=-1;spacingLeft=3;spacingRight=3;rotatable=0;labelPosition=right;points=[];portConstraint=eastwest;" vertex="1" parent="lc6y13ehDyG2O-l-3n0m-13">
          <mxGeometry y="104" width="180" height="8" as="geometry" />
        </mxCell>
        <mxCell id="lc6y13ehDyG2O-l-3n0m-23" value="Team" style="swimlane;fontStyle=0;align=center;verticalAlign=top;childLayout=stackLayout;horizontal=1;startSize=26;horizontalStack=0;resizeParent=1;resizeLast=0;collapsible=1;marginBottom=0;rounded=0;shadow=0;strokeWidth=1;" vertex="1" parent="WIyWlLk6GJQsqaUBKTNV-1">
          <mxGeometry x="910" y="557" width="180" height="153" as="geometry">
            <mxRectangle x="550" y="140" width="160" height="26" as="alternateBounds" />
          </mxGeometry>
        </mxCell>
        <mxCell id="lc6y13ehDyG2O-l-3n0m-26" value="&lt;span style=&quot;&quot;&gt;+ TeamId: int&lt;br&gt;+ TeamLead : AppUser&lt;br&gt;+ Members : List&amp;lt;AppUser&amp;gt;&lt;br&gt;+ Comments : List&amp;lt;Comment&amp;gt;&lt;br&gt;+ Type : string&lt;br&gt;&lt;br&gt;&lt;/span&gt;" style="text;whiteSpace=wrap;html=1;" vertex="1" parent="lc6y13ehDyG2O-l-3n0m-23">
          <mxGeometry y="26" width="180" height="90" as="geometry" />
        </mxCell>
        <mxCell id="lc6y13ehDyG2O-l-3n0m-25" value="" style="line;html=1;strokeWidth=1;align=left;verticalAlign=middle;spacingTop=-1;spacingLeft=3;spacingRight=3;rotatable=0;labelPosition=right;points=[];portConstraint=eastwest;" vertex="1" parent="lc6y13ehDyG2O-l-3n0m-23">
          <mxGeometry y="116" width="180" height="8" as="geometry" />
        </mxCell>
        <mxCell id="lc6y13ehDyG2O-l-3n0m-30" value="Comment" style="swimlane;fontStyle=0;align=center;verticalAlign=top;childLayout=stackLayout;horizontal=1;startSize=26;horizontalStack=0;resizeParent=1;resizeLast=0;collapsible=1;marginBottom=0;rounded=0;shadow=0;strokeWidth=1;" vertex="1" parent="WIyWlLk6GJQsqaUBKTNV-1">
          <mxGeometry x="690" y="1010" width="180" height="150" as="geometry">
            <mxRectangle x="550" y="140" width="160" height="26" as="alternateBounds" />
          </mxGeometry>
        </mxCell>
        <mxCell id="lc6y13ehDyG2O-l-3n0m-33" value="&lt;span style=&quot;&quot;&gt;+ CommentId = int&lt;br&gt;+ Body : string&lt;br&gt;+ Date : DateOnly[]&lt;br&gt;+ Author : AppUser[]&lt;br&gt;+ Comments: List&amp;lt;Comment&amp;gt;&lt;br&gt;+ ConvoId : int&lt;br&gt;&lt;/span&gt;" style="text;whiteSpace=wrap;html=1;" vertex="1" parent="lc6y13ehDyG2O-l-3n0m-30">
          <mxGeometry y="26" width="180" height="100" as="geometry" />
        </mxCell>
        <mxCell id="lc6y13ehDyG2O-l-3n0m-32" value="" style="line;html=1;strokeWidth=1;align=left;verticalAlign=middle;spacingTop=-1;spacingLeft=3;spacingRight=3;rotatable=0;labelPosition=right;points=[];portConstraint=eastwest;" vertex="1" parent="lc6y13ehDyG2O-l-3n0m-30">
          <mxGeometry y="126" width="180" height="8" as="geometry" />
        </mxCell>
        <mxCell id="lc6y13ehDyG2O-l-3n0m-54" style="edgeStyle=orthogonalEdgeStyle;rounded=0;orthogonalLoop=1;jettySize=auto;html=1;exitX=0.25;exitY=1;exitDx=0;exitDy=0;entryX=1;entryY=0.75;entryDx=0;entryDy=0;strokeWidth=2;dashed=1;dashPattern=8 8;endArrow=diamondThin;endFill=0;endSize=15;startSize=15;jumpSize=5;startArrow=none;startFill=0;strokeColor=default;" edge="1" parent="lc6y13ehDyG2O-l-3n0m-30" source="lc6y13ehDyG2O-l-3n0m-30" target="lc6y13ehDyG2O-l-3n0m-33">
          <mxGeometry relative="1" as="geometry">
            <Array as="points">
              <mxPoint x="45" y="170" />
              <mxPoint x="210" y="170" />
              <mxPoint x="210" y="101" />
            </Array>
          </mxGeometry>
        </mxCell>
        <mxCell id="lc6y13ehDyG2O-l-3n0m-35" style="edgeStyle=orthogonalEdgeStyle;rounded=0;orthogonalLoop=1;jettySize=auto;html=1;strokeColor=none;endArrow=none;endFill=0;startArrow=diamondThin;startFill=0;endSize=14;startSize=15;" edge="1" parent="WIyWlLk6GJQsqaUBKTNV-1" source="lc6y13ehDyG2O-l-3n0m-33" target="lc6y13ehDyG2O-l-3n0m-0">
          <mxGeometry relative="1" as="geometry" />
        </mxCell>
        <mxCell id="lc6y13ehDyG2O-l-3n0m-36" style="edgeStyle=orthogonalEdgeStyle;rounded=0;orthogonalLoop=1;jettySize=auto;html=1;endSize=15;startSize=15;strokeWidth=2;endArrow=none;endFill=0;startArrow=diamondThin;startFill=0;entryX=0.25;entryY=1;entryDx=0;entryDy=0;curved=1;" edge="1" parent="WIyWlLk6GJQsqaUBKTNV-1" target="zkfFHV4jXpPFQw0GAbJ--17">
          <mxGeometry relative="1" as="geometry">
            <mxPoint x="780" y="1010" as="sourcePoint" />
            <mxPoint x="660" y="830" as="targetPoint" />
          </mxGeometry>
        </mxCell>
        <mxCell id="lc6y13ehDyG2O-l-3n0m-38" style="edgeStyle=orthogonalEdgeStyle;rounded=0;orthogonalLoop=1;jettySize=auto;html=1;endArrow=diamondThin;endFill=1;endSize=15;startSize=15;strokeWidth=2;startArrow=none;startFill=0;entryX=0;entryY=0.5;entryDx=0;entryDy=0;" edge="1" parent="WIyWlLk6GJQsqaUBKTNV-1" source="lc6y13ehDyG2O-l-3n0m-0" target="lc6y13ehDyG2O-l-3n0m-26">
          <mxGeometry relative="1" as="geometry">
            <mxPoint x="570" y="190" as="targetPoint" />
          </mxGeometry>
        </mxCell>
        <mxCell id="lc6y13ehDyG2O-l-3n0m-34" style="edgeStyle=orthogonalEdgeStyle;rounded=0;orthogonalLoop=1;jettySize=auto;html=1;entryX=0;entryY=0.5;entryDx=0;entryDy=0;strokeWidth=2;endArrow=none;endFill=0;strokeColor=default;startArrow=diamondThin;startFill=1;endSize=15;startSize=15;exitX=0.5;exitY=1;exitDx=0;exitDy=0;elbow=vertical;curved=1;" edge="1" parent="WIyWlLk6GJQsqaUBKTNV-1" source="lc6y13ehDyG2O-l-3n0m-3" target="lc6y13ehDyG2O-l-3n0m-33">
          <mxGeometry relative="1" as="geometry">
            <mxPoint x="400" y="870" as="sourcePoint" />
            <mxPoint x="335" y="990" as="targetPoint" />
          </mxGeometry>
        </mxCell>
        <mxCell id="lc6y13ehDyG2O-l-3n0m-43" style="edgeStyle=orthogonalEdgeStyle;rounded=0;orthogonalLoop=1;jettySize=auto;html=1;entryX=0;entryY=0.5;entryDx=0;entryDy=0;endArrow=diamondThin;endFill=0;strokeWidth=2;endSize=15;startSize=15;" edge="1" parent="WIyWlLk6GJQsqaUBKTNV-1" source="zkfFHV4jXpPFQw0GAbJ--8" target="lc6y13ehDyG2O-l-3n0m-3">
          <mxGeometry relative="1" as="geometry" />
        </mxCell>
        <mxCell id="lc6y13ehDyG2O-l-3n0m-45" style="edgeStyle=orthogonalEdgeStyle;rounded=0;orthogonalLoop=1;jettySize=auto;html=1;endArrow=diamondThin;endFill=0;strokeWidth=2;endSize=15;startSize=15;entryX=0;entryY=0.5;entryDx=0;entryDy=0;exitX=1.014;exitY=0.16;exitDx=0;exitDy=0;exitPerimeter=0;" edge="1" parent="WIyWlLk6GJQsqaUBKTNV-1" source="lc6y13ehDyG2O-l-3n0m-16" target="lc6y13ehDyG2O-l-3n0m-3">
          <mxGeometry relative="1" as="geometry">
            <mxPoint x="200" y="840" as="sourcePoint" />
            <mxPoint x="350" y="1090" as="targetPoint" />
          </mxGeometry>
        </mxCell>
        <mxCell id="lc6y13ehDyG2O-l-3n0m-46" style="edgeStyle=orthogonalEdgeStyle;rounded=0;orthogonalLoop=1;jettySize=auto;html=1;endArrow=diamondThin;endFill=0;strokeWidth=2;endSize=15;startSize=15;exitX=1;exitY=0.5;exitDx=0;exitDy=0;entryX=0;entryY=0.5;entryDx=0;entryDy=0;" edge="1" parent="WIyWlLk6GJQsqaUBKTNV-1" source="lc6y13ehDyG2O-l-3n0m-10" target="lc6y13ehDyG2O-l-3n0m-3">
          <mxGeometry relative="1" as="geometry">
            <mxPoint x="203" y="820" as="sourcePoint" />
            <mxPoint x="340" y="970" as="targetPoint" />
          </mxGeometry>
        </mxCell>
        <mxCell id="lc6y13ehDyG2O-l-3n0m-58" value="&lt;font style=&quot;font-size: 18px;&quot;&gt;0..*&lt;/font&gt;" style="text;html=1;align=center;verticalAlign=middle;resizable=0;points=[];autosize=1;strokeColor=none;fillColor=none;" vertex="1" parent="WIyWlLk6GJQsqaUBKTNV-1">
          <mxGeometry x="180" y="800" width="50" height="40" as="geometry" />
        </mxCell>
        <mxCell id="lc6y13ehDyG2O-l-3n0m-59" value="&lt;font style=&quot;font-size: 18px;&quot;&gt;1&lt;/font&gt;" style="text;html=1;align=center;verticalAlign=middle;resizable=0;points=[];autosize=1;strokeColor=none;fillColor=none;" vertex="1" parent="WIyWlLk6GJQsqaUBKTNV-1">
          <mxGeometry x="610" y="850" width="30" height="40" as="geometry" />
        </mxCell>
        <mxCell id="lc6y13ehDyG2O-l-3n0m-60" value="&lt;font style=&quot;font-size: 18px;&quot;&gt;0..3&lt;/font&gt;" style="text;html=1;align=center;verticalAlign=middle;resizable=0;points=[];autosize=1;strokeColor=none;fillColor=none;" vertex="1" parent="WIyWlLk6GJQsqaUBKTNV-1">
          <mxGeometry x="960" y="517" width="50" height="40" as="geometry" />
        </mxCell>
        <mxCell id="lc6y13ehDyG2O-l-3n0m-61" value="&lt;font style=&quot;font-size: 18px;&quot;&gt;0..*&lt;/font&gt;" style="text;html=1;align=center;verticalAlign=middle;resizable=0;points=[];autosize=1;strokeColor=none;fillColor=none;" vertex="1" parent="WIyWlLk6GJQsqaUBKTNV-1">
          <mxGeometry x="180" y="940" width="50" height="40" as="geometry" />
        </mxCell>
        <mxCell id="lc6y13ehDyG2O-l-3n0m-62" value="&lt;font style=&quot;font-size: 18px;&quot;&gt;0..*&lt;/font&gt;" style="text;html=1;align=center;verticalAlign=middle;resizable=0;points=[];autosize=1;strokeColor=none;fillColor=none;" vertex="1" parent="WIyWlLk6GJQsqaUBKTNV-1">
          <mxGeometry x="260" y="590" width="50" height="40" as="geometry" />
        </mxCell>
        <mxCell id="lc6y13ehDyG2O-l-3n0m-63" value="&lt;font style=&quot;font-size: 18px;&quot;&gt;0..*&lt;/font&gt;" style="text;html=1;align=center;verticalAlign=middle;resizable=0;points=[];autosize=1;strokeColor=none;fillColor=none;" vertex="1" parent="WIyWlLk6GJQsqaUBKTNV-1">
          <mxGeometry x="460" y="720" width="50" height="40" as="geometry" />
        </mxCell>
        <mxCell id="lc6y13ehDyG2O-l-3n0m-64" value="&lt;font style=&quot;font-size: 18px;&quot;&gt;0..*&lt;/font&gt;" style="text;html=1;align=center;verticalAlign=middle;resizable=0;points=[];autosize=1;strokeColor=none;fillColor=none;" vertex="1" parent="WIyWlLk6GJQsqaUBKTNV-1">
          <mxGeometry x="640" y="1050" width="50" height="40" as="geometry" />
        </mxCell>
        <mxCell id="lc6y13ehDyG2O-l-3n0m-65" value="&lt;font style=&quot;font-size: 18px;&quot;&gt;1&lt;/font&gt;" style="text;html=1;align=center;verticalAlign=middle;resizable=0;points=[];autosize=1;strokeColor=none;fillColor=none;" vertex="1" parent="WIyWlLk6GJQsqaUBKTNV-1">
          <mxGeometry x="330" y="858" width="30" height="40" as="geometry" />
        </mxCell>
        <mxCell id="lc6y13ehDyG2O-l-3n0m-66" value="&lt;font style=&quot;font-size: 18px;&quot;&gt;1&lt;/font&gt;" style="text;html=1;align=center;verticalAlign=middle;resizable=0;points=[];autosize=1;strokeColor=none;fillColor=none;" vertex="1" parent="WIyWlLk6GJQsqaUBKTNV-1">
          <mxGeometry x="290" y="1050" width="30" height="40" as="geometry" />
        </mxCell>
        <mxCell id="lc6y13ehDyG2O-l-3n0m-67" value="&lt;font style=&quot;font-size: 18px;&quot;&gt;0..*&lt;/font&gt;" style="text;html=1;align=center;verticalAlign=middle;resizable=0;points=[];autosize=1;strokeColor=none;fillColor=none;" vertex="1" parent="WIyWlLk6GJQsqaUBKTNV-1">
          <mxGeometry x="740" y="670" width="50" height="40" as="geometry" />
        </mxCell>
        <mxCell id="lc6y13ehDyG2O-l-3n0m-68" value="&lt;font style=&quot;font-size: 18px;&quot;&gt;0..*&lt;/font&gt;" style="text;html=1;align=center;verticalAlign=middle;resizable=0;points=[];autosize=1;strokeColor=none;fillColor=none;" vertex="1" parent="WIyWlLk6GJQsqaUBKTNV-1">
          <mxGeometry x="780" y="970" width="50" height="40" as="geometry" />
        </mxCell>
        <mxCell id="lc6y13ehDyG2O-l-3n0m-70" value="&lt;font style=&quot;font-size: 18px;&quot;&gt;0..*&lt;/font&gt;" style="text;html=1;align=center;verticalAlign=middle;resizable=0;points=[];autosize=1;strokeColor=none;fillColor=none;" vertex="1" parent="WIyWlLk6GJQsqaUBKTNV-1">
          <mxGeometry x="550" y="720" width="50" height="40" as="geometry" />
        </mxCell>
        <mxCell id="lc6y13ehDyG2O-l-3n0m-72" value="&lt;font style=&quot;font-size: 18px;&quot;&gt;0..1&lt;/font&gt;" style="text;html=1;align=center;verticalAlign=middle;resizable=0;points=[];autosize=1;strokeColor=none;fillColor=none;" vertex="1" parent="WIyWlLk6GJQsqaUBKTNV-1">
          <mxGeometry x="860" y="580" width="50" height="40" as="geometry" />
        </mxCell>
      </root>
    </mxGraphModel>
  </diagram>
</mxfile>
